<svg width="250" height="200" viewBox="0 0 250 200" fill="none" xmlns="http://www.w3.org/2000/svg">
<rect width="250" height="200" fill=""/>
<path d="M18.0937 36.3161V48.9775C18.1045 52.4165 20.8871 55.1991 24.3261 55.1991H35.5286L41.5825 59.336C41.6871 59.4081 41.8115 59.4514 41.9378 59.4514C42.2912 59.4514 42.5725 59.1701 42.5725 58.8148V55.1991H43.4796C46.9186 55.1991 49.7012 52.4165 49.7012 48.9775V36.3161C49.7012 32.8771 46.9186 30.0945 43.4796 30.0945H24.3153C20.8763 30.0945 18.0937 32.8771 18.0937 36.3161Z" fill="#F5F0EC"/>
<path opacity="0.2" d="M35.5286 55.1991L36.4862 55.8555L42.5726 57.0025V55.1991H35.5286Z" fill="#676767"/>
<path d="M28.0483 43.3348C27.6876 42.9849 27.4009 42.5665 27.2025 42.1049C27.0041 41.6414 26.8977 41.1455 26.8923 40.6424C26.8869 40.1392 26.9807 39.6415 27.1682 39.1744C27.354 38.7073 27.6317 38.2818 27.9852 37.9229C28.3368 37.564 28.7552 37.2791 29.2187 37.0825C29.6821 36.886 30.178 36.7832 30.6812 36.7778C31.1843 36.7741 31.682 36.8697 32.1491 37.0591C32.6144 37.2484 33.0382 37.5261 33.397 37.8796C33.4151 37.8976 33.4313 37.9157 33.4493 37.9337L34.1833 38.6677L34.901 37.9337C35.2545 37.573 35.6765 37.2863 36.1418 37.0879C36.607 36.8914 37.1047 36.7886 37.6115 36.7868C38.1164 36.7832 38.616 36.8805 39.083 37.0735C39.5501 37.2647 39.9757 37.5478 40.331 37.9049C40.688 38.2619 40.9712 38.6857 41.1641 39.1528C41.3553 39.6217 41.4527 40.1212 41.4509 40.6261C41.4472 41.1311 41.3445 41.6306 41.1479 42.0959C40.9513 42.5611 40.6646 42.9831 40.3021 43.3348L34.2158 49.4211L28.0483 43.3348Z" fill="#FD881C"/>
<path d="M22.0809 120.234C25.4388 120.234 28.1619 117.511 28.1619 114.153C28.1619 110.795 25.4388 108.072 22.0809 108.072C18.7231 108.072 16 110.795 16 114.153C16 117.511 18.7231 120.234 22.0809 120.234Z" fill="#0E0709"/>
<path d="M36.2932 132.68C38.7819 132.68 40.7998 130.663 40.7998 128.174C40.7998 125.685 38.7819 123.667 36.2932 123.667C33.8046 123.667 31.7866 125.685 31.7866 128.174C31.7866 130.663 33.8046 132.68 36.2932 132.68Z" fill="#0E0709"/>
<path d="M227.134 120.234C223.776 120.234 221.053 117.511 221.053 114.153C221.053 110.795 223.776 108.072 227.134 108.072C230.492 108.072 233.215 110.795 233.215 114.153C233.215 117.511 230.492 120.234 227.134 120.234Z" fill="#666D68"/>
<path d="M212.922 132.68C210.433 132.68 208.415 130.663 208.415 128.174C208.415 125.685 210.433 123.667 212.922 123.667C215.41 123.667 217.428 125.685 217.428 128.174C217.428 130.663 215.41 132.68 212.922 132.68Z" fill="#666D68"/>
<path d="M225.608 36.3161V48.9775C225.597 52.4165 222.815 55.1991 219.376 55.1991H208.173L202.12 59.336C202.015 59.4081 201.891 59.4514 201.764 59.4514C201.411 59.4514 201.129 59.1701 201.129 58.8148V55.1991H200.222C196.783 55.1991 194.001 52.4165 194.001 48.9775V36.3161C194.001 32.8771 196.783 30.0945 200.222 30.0945H219.387C222.826 30.0945 225.608 32.8771 225.608 36.3161Z" fill="#F5F0EC"/>
<path opacity="0.2" d="M208.173 55.1991L207.214 55.8555L201.129 57.0025V55.1991H208.173Z" fill="#676767"/>
<path d="M112.529 155.538C108.915 154.27 107.012 150.316 108.28 146.702C109.546 143.088 113.502 141.185 117.114 142.451C120.728 143.719 122.631 147.674 121.365 151.288C120.099 154.902 116.142 156.804 112.529 155.538Z" fill="#EE731B"/>
<path d="M135.002 132.14C131.39 130.872 129.487 126.917 130.753 123.303C132.019 119.689 135.976 117.787 139.588 119.053C143.202 120.32 145.104 124.275 143.838 127.889C142.573 131.503 138.616 133.405 135.002 132.14Z" fill="#EE731B"/>
<path d="M206.127 48.7881C206.121 48.7791 205.58 47.6304 205.043 45.5349C204.444 43.2158 204.565 41.7388 205.459 40.4386C205.77 39.9859 206.114 39.8904 206.348 39.8904C206.81 39.8904 207.216 40.2637 207.216 40.6892C207.216 41.068 207.183 41.2555 207.147 41.4755C207.111 41.6937 207.07 41.9408 207.048 42.4385C207.017 43.0859 207.302 43.5277 207.546 43.782C207.914 44.1679 208.444 44.397 208.965 44.397C209.443 44.397 209.856 44.2058 210.13 43.8578C210.545 43.3294 210.657 42.7379 210.453 42.1446C210.146 41.2483 209.099 40.3917 207.962 40.1086C207.425 39.9733 207.102 39.674 207.099 39.3097C207.095 38.9274 207.441 38.5757 207.962 38.435C208.19 38.3719 208.444 38.3395 208.716 38.3395C209.342 38.3395 209.876 38.5144 209.881 38.5162C209.872 38.5072 209.295 37.1691 209.526 36.4297C209.589 36.2277 209.708 36.0871 209.878 36.0095C209.952 35.9753 210.031 35.959 210.114 35.959C210.875 35.959 211.71 37.4161 211.719 37.4306C211.641 36.7309 211.798 36.3936 211.942 36.2331C212.051 36.1141 212.191 36.0492 212.348 36.0492C212.59 36.0492 212.841 36.2043 212.97 36.4333C213.378 37.142 214.559 40.1194 214.559 42.9416C214.559 45.5998 214.061 48.7539 214.058 48.7845L214.056 48.7863V48.7881H206.127Z" fill="#FD881C"/>
<path opacity="0.3" d="M211.713 37.4342C211.639 36.72 211.802 36.3828 211.95 36.2259L212.493 38.6208L212.487 38.6244L211.713 37.4342Z" fill="#F5F0EC"/>
<path opacity="0.3" d="M211.737 39.6054C210.994 38.9201 209.89 38.5252 209.878 38.5216C209.874 38.5144 209.515 37.6884 209.475 36.9743L211.74 39.6018L211.737 39.6054Z" fill="#F5F0EC"/>
<path d="M177.983 25H66.3769V93.8091H177.983V25Z" fill="#666D68"/>
<path d="M122.485 42.379C118.658 42.379 114.916 43.5151 111.735 45.6377C108.554 47.7566 106.074 50.7772 104.612 54.3064C103.146 57.8374 102.765 61.7218 103.512 65.4692C104.258 69.213 106.1 72.6574 108.806 75.3607C111.51 78.0603 114.958 79.8997 118.71 80.6481C122.46 81.3929 126.353 81.0106 129.884 79.5445C133.42 78.0837 136.445 75.6077 138.571 72.4302C140.695 69.2545 141.83 65.5179 141.83 61.6966C141.83 56.5733 139.79 51.6609 136.163 48.0397C132.533 44.415 127.615 42.379 122.485 42.379ZM122.485 76.6519C119.522 76.6519 116.626 75.7754 114.162 74.1344C111.703 72.4879 109.782 70.1562 108.65 67.4205C107.512 64.6884 107.216 61.6804 107.797 58.7788C108.374 55.879 109.798 53.2172 111.892 51.1217C113.989 49.0316 116.655 47.6087 119.563 47.0281C122.469 46.4528 125.48 46.7485 128.216 47.8792C130.952 49.0118 133.292 50.9287 134.935 53.3885C136.58 55.8501 137.462 58.7373 137.462 61.6966C137.462 63.6623 137.074 65.6045 136.32 67.4205C135.566 69.2347 134.466 70.8847 133.074 72.2751C131.686 73.6619 130.034 74.7638 128.216 75.5176C126.4 76.266 124.451 76.6519 122.485 76.6519Z" fill="#F5F0EC"/>
<path d="M186.647 54.155C190.05 54.155 192.807 51.3958 192.807 47.9947C192.807 44.5935 190.05 41.8344 186.647 41.8344C183.246 41.8344 180.486 44.5935 180.486 47.9947C180.486 51.3958 183.246 54.155 186.647 54.155Z" fill="#231F20"/>
<path d="M183.208 156.467C182.549 152.325 181.383 147.153 180.292 142.173C180.113 141.335 179.918 140.498 179.738 139.661C179.201 137.18 178.737 134.354 178.348 131.288L178.229 130.062H193.09L193.568 131.274C193.539 133.815 193.822 134.891 194.452 137.254C194.661 138.062 194.915 138.944 195.184 139.885C196.379 144.056 198.039 149.753 198.188 156.436V156.452L189.622 168.892L183.208 156.467Z" fill="#B36937"/>
<path opacity="0.2" d="M178.468 132.201C178.423 131.887 178.393 131.588 178.348 131.288L178.229 130.062H193.09L193.568 131.274C193.539 133.815 193.822 134.891 194.452 137.254L194.466 137.313L178.468 132.201Z" fill="black"/>
<path d="M174.804 67.3556C174.267 67.4602 173.744 67.5052 173.25 67.5052C171.351 67.5052 169.811 66.728 169.259 65.4729C169.242 65.4422 169.228 65.4134 169.214 65.3827C168.943 64.8146 168.406 63.619 169.169 59.2531C169.392 58.0124 169.482 57.0241 169.556 56.2324C169.765 54.0197 169.856 53.017 172.068 51.0442C173.309 49.9387 175.329 50.2363 177.615 50.2363C180.232 50.2363 181.399 50.6546 182.34 51.8665C184.059 54.0792 184.912 54.4381 184.717 58.6093C184.598 61.0312 185.166 66.5044 185.166 66.5044C185.166 66.5044 185.076 68.4033 185.047 68.8073L184.717 69.718L174.64 70.0173L174.804 67.3556Z" fill="#B36937"/>
<path opacity="0.2" d="M174.804 67.3556L174.97 67.3267C175.881 67.1915 176.643 66.9534 177.525 66.6685L177.615 66.6378L175.163 69.8839L174.64 69.9723L174.804 67.3556Z" fill="black"/>
<path d="M185.135 67.2221C185.107 67.2221 179.873 65.5919 180.236 65.2565L180.432 65.0653L180.501 65.0094C180.665 64.8705 184.194 62.7516 182.879 60.1205C182.49 59.3577 181.817 58.9681 180.89 58.9681C179.5 58.9681 178.102 59.9564 177.978 59.8392L177.956 59.8049L177.9 59.74C177.65 59.3432 177.601 56.4867 177.455 56.328C177.376 56.2324 176.196 56.7266 175.194 56.7266C174.595 56.7266 174.176 56.5462 173.922 56.2018C173.563 55.695 173.594 54.8114 173.246 54.6112C172.817 54.4525 171.695 54.6329 170.963 54.6329C170.26 54.6329 169.782 54.4237 169.782 54.4237C170.036 53.2118 170.483 52.256 171.949 50.954C173.204 49.8485 175.134 49.2354 177.392 49.2354C179.963 49.2354 182.49 50.0126 183.657 51.2534C185.839 53.0477 185.704 54.4832 185.57 58.6544C185.465 61.0312 185.135 67.2221 185.135 67.2221Z" fill="#231F20"/>
<path d="M145.754 93.9552C143.063 93.9552 140.986 92.4295 140.85 92.3105L138.652 91.8759C138.666 91.8164 139.804 85.6867 138.353 84.9546C137.366 84.4605 136.979 83.6526 137.038 83.1152C137.083 82.7256 137.352 82.4569 137.756 82.3523C137.905 82.3235 138.098 82.3073 138.369 82.3073C141.164 82.3073 149.791 84.2819 149.882 84.2964H149.91L147.205 93.9101H146.426C146.203 93.9389 145.979 93.9552 145.754 93.9552Z" fill="#B36937"/>
<path d="M176.151 172.569L176.211 171.942C176.375 171.673 176.553 171.419 176.764 171.179C177.392 170.43 178.423 169.684 179.529 168.892C181.249 167.65 183.044 166.364 183.491 164.914C183.954 163.433 183.85 160.638 183.177 156.407H187.2C188.755 156.407 190.026 157.634 190.1 159.188L190.354 164.869L192.821 158.306C193.24 157.185 194.331 156.422 195.543 156.422L198.219 156.452C198.233 157.259 198.233 158.052 198.219 158.813C198.084 163.21 197.696 167.635 197.068 171.97L196.709 172.6H176.151V172.569Z" fill="#FD881C"/>
<path d="M160.301 159.397L159.241 156.512C159.196 154.433 159.046 152.087 158.897 149.693C158.628 145.627 158.343 141.021 158.507 136.358C158.568 134.727 158.687 133.007 158.882 131.274L159.405 129.599L173.953 130.048L174.461 131.274V131.288C173.34 134.637 172.831 137.119 172.921 138.899C173.011 140.857 173.176 142.577 173.325 144.386C173.623 147.749 173.938 151.234 173.863 156.422L169.333 164.481L164.967 167.949L160.301 159.397Z" fill="#B36937"/>
<path opacity="0.2" d="M173.1 136.253C170.842 135.519 167.807 134.652 165.116 133.891C160.631 132.605 158.823 131.887 158.823 131.887C158.837 131.678 158.866 131.438 158.882 131.274L159.405 129.599L173.953 130.048L174.461 131.274V131.288C173.893 132.902 173.444 134.563 173.131 136.237V136.267L173.1 136.253Z" fill="black"/>
<path d="M151.032 172.569L150.928 171.942V171.927C151.092 171.657 151.272 171.419 151.465 171.179C152.109 170.416 153.155 169.639 154.248 168.816C155.907 167.576 157.611 166.304 158.179 164.914C158.971 162.97 159.286 160.294 159.21 156.377L162.336 156.407C163.89 156.407 165.161 157.634 165.235 159.188L165.49 164.869L167.957 158.306C168.375 157.185 169.468 156.422 170.678 156.422L173.877 156.391C173.863 157.049 173.818 157.738 173.803 158.366C173.653 162.925 173.085 167.516 172.128 171.97V171.987L171.545 172.6H151.032V172.569Z" fill="#FD881C"/>
<path d="M175.403 174.962V174.931C175.403 174.917 175.224 173.51 176.211 171.911L197.083 171.927C196.814 173.795 196.56 174.962 196.56 174.962H175.403Z" fill="#1B0045"/>
<path d="M150.136 174.962V174.931C150.136 174.917 149.941 173.527 150.928 171.927L172.144 171.942C171.74 173.81 171.426 174.946 171.426 174.946L150.136 174.962Z" fill="#1B0045"/>
<path d="M158.866 131.288C160.931 112.584 170.229 94.8063 170.319 94.6278H189.487C189.501 94.6422 190.982 96.7954 192.344 100.384C193.584 103.688 194.975 109.34 194.452 117.428C194.302 119.776 194.167 121.749 194.048 123.424C193.793 127.281 193.629 129.613 193.599 131.288H158.866Z" fill="#232627"/>
<path opacity="0.2" d="M193.613 105.033C182.131 102.611 173.998 95.1814 173.922 95.1057L173.863 95.0606H189.442L189.456 95.0768C189.487 95.1057 192.223 98.2309 193.658 105.004L193.674 105.049L193.613 105.033Z" fill="#515151"/>
<path fill-rule="evenodd" clip-rule="evenodd" d="M186.267 95.9353C186.461 95.8908 186.654 96.0122 186.699 96.2063C188.352 103.419 188.577 108.757 188.511 114.009C188.495 115.312 188.461 116.608 188.426 117.924C188.321 121.914 188.211 126.092 188.575 131.248C188.589 131.447 188.44 131.62 188.241 131.634C188.042 131.648 187.87 131.498 187.856 131.299C187.489 126.105 187.6 121.879 187.705 117.883C187.74 116.573 187.774 115.287 187.79 114C187.855 108.786 187.632 103.508 185.996 96.3675C185.951 96.1733 186.073 95.9798 186.267 95.9353Z" fill="#515151"/>
<path d="M189.936 100.353C187.319 100.353 184.374 99.9207 181.862 99.1434H181.846L181.549 95.1057H170.186L169.901 92.9236C169.542 93.5512 166.896 97.6629 161.245 97.7981C161.124 97.7981 161.005 97.7981 160.886 97.7981C157.521 97.7981 153.768 96.7359 151.212 95.8541C148.446 94.8965 146.457 93.9101 146.426 93.9101L146.412 93.8956L148.67 83.9826L160.182 86.3738C160.301 85.9104 161.813 80.0494 164.667 75.624C166.537 72.7242 169.782 70.9298 174.312 70.2716C174.402 70.2572 174.461 70.2428 174.521 70.2428L174.716 68.5981L185.062 68.6269C185.031 69.525 184.988 70.1075 184.988 70.2428C185.197 70.2716 186.602 70.4664 188.441 71.3176C190.264 72.1705 192.895 73.8747 195.079 77.1352C199.22 83.3388 201.239 90.994 199.878 95.3455C198.473 99.7115 193.045 100.353 189.936 100.353Z" fill="#FD881C"/>
<path opacity="0.2" d="M185.81 90.0978L185.839 90.0527C186.243 89.4395 186.302 88.408 186.347 87.4053C186.407 86.1358 186.466 84.9383 187.229 84.6101L187.26 84.5957L187.274 84.6246L189.083 89.8886L185.81 90.0978Z" fill="black"/>
<path opacity="0.2" d="M169.214 86.4333L169.931 92.8641V92.8785C169.169 94.1499 168.121 95.2409 166.896 96.0633L166.835 96.1084L169.214 86.4333Z" fill="black"/>
<path fill-rule="evenodd" clip-rule="evenodd" d="M160.035 86.0897C160.217 86.0083 160.43 86.0897 160.512 86.2715L161.529 88.5438C161.61 88.7256 161.529 88.939 161.347 89.0203C161.165 89.1017 160.952 89.0203 160.87 88.8385L159.853 86.5663C159.772 86.3844 159.853 86.1711 160.035 86.0897Z" fill="black"/>
<path fill-rule="evenodd" clip-rule="evenodd" d="M169.118 85.0141C169.316 84.9943 169.493 85.1389 169.513 85.3371L170.26 92.812C170.279 93.0102 170.135 93.187 169.937 93.2068C169.738 93.2266 169.562 93.0819 169.542 92.8837L168.795 85.4088C168.775 85.2106 168.92 85.0339 169.118 85.0141Z" fill="black"/>
<path fill-rule="evenodd" clip-rule="evenodd" d="M187.577 85.6284C187.765 85.5643 187.97 85.6652 188.034 85.8538L189.351 89.7274C189.415 89.916 189.314 90.1209 189.125 90.185C188.937 90.2491 188.732 90.1481 188.668 89.9595L187.351 86.0859C187.287 85.8973 187.388 85.6925 187.577 85.6284Z" fill="black"/>
<path d="M139.669 94.0742C139.37 94.0742 139.161 94.0291 139.011 93.9389C138.324 93.4917 138.369 92.6838 138.383 92.5197C138.248 92.489 137.666 92.3556 137.366 91.8615C137.157 91.517 137.143 91.0535 137.321 90.5306C137.171 90.4116 136.126 89.5892 136.679 88.4982C136.544 88.3936 135.797 87.7642 136.23 86.6281C136.38 86.2241 136.948 85.6561 137.785 85.2233C138.697 84.7598 139.759 84.5506 140.627 84.5506C140.836 84.5506 141.029 84.565 141.209 84.5957C141.837 84.6841 142.032 84.9997 142.181 85.3423C142.376 85.822 142.241 86.2855 142.136 86.4333C142.286 86.4946 142.63 86.7633 142.764 87.3007C142.899 87.8688 142.481 88.3629 142.331 88.4982C142.526 88.6479 143.108 88.931 142.944 89.4846C142.928 90.0978 142.122 90.9345 141.119 91.398C141.283 91.3673 141.509 91.324 141.777 91.324C142.719 91.324 142.928 91.5477 142.928 92.1302C142.928 92.7595 142.39 93.3114 141.896 93.5368C141.195 93.8506 140.311 94.0742 139.669 94.0742Z" fill="#B36937"/>
<path d="M179.365 99.6952C177.019 99.6952 174.685 99.2318 174.656 99.2318C174.64 99.2318 172.068 99.6069 170.095 99.6069C168.615 99.6069 167.838 99.3977 167.778 98.9793C167.643 97.9766 170.663 97.4086 171.845 97.2138C171.859 97.2138 171.859 97.1994 171.845 97.1994C170.544 97.1687 169.242 97.0641 167.957 96.9C166.94 96.781 166.298 96.4961 166.074 96.0488C165.908 95.7188 166.013 95.4195 166.058 95.3311C165.52 95.0318 165.235 94.6729 165.19 94.2978C165.147 93.7604 165.594 93.342 165.684 93.2663C165.654 93.1166 165.52 92.1608 167.06 91.6072C168.541 91.0698 171.978 90.7704 172.636 90.7109C172.337 90.5612 171.455 90.0671 171.291 89.4846C171.232 89.2898 171.262 89.0951 171.381 88.931C171.515 88.7362 171.919 88.6479 172.608 88.6479C175.448 88.6479 182.25 90.2474 182.326 90.2619H182.355L182.504 99.3364H182.49C181.668 99.6213 180.622 99.6952 179.365 99.6952Z" fill="#B36937"/>
<path fill-rule="evenodd" clip-rule="evenodd" d="M191.192 89.683C191.206 89.8817 191.056 90.0541 190.858 90.068L182.335 90.6667C182.136 90.6807 181.964 90.5309 181.95 90.3322C181.936 90.1335 182.086 89.9611 182.284 89.9472L190.807 89.3485C191.006 89.3345 191.178 89.4843 191.192 89.683Z" fill="black"/>
<path fill-rule="evenodd" clip-rule="evenodd" d="M183.154 164.861C183.225 164.675 183.433 164.582 183.619 164.652L186.761 165.848C186.947 165.919 187.04 166.127 186.969 166.313C186.899 166.5 186.69 166.593 186.504 166.522L183.363 165.327C183.176 165.256 183.083 165.047 183.154 164.861Z" fill="#1B0045"/>
<path fill-rule="evenodd" clip-rule="evenodd" d="M181.721 166.854C181.838 166.693 182.064 166.658 182.225 166.776L184.989 168.794C185.15 168.911 185.185 169.137 185.068 169.298C184.95 169.459 184.725 169.494 184.564 169.376L181.799 167.358C181.639 167.241 181.603 167.015 181.721 166.854Z" fill="#1B0045"/>
<path fill-rule="evenodd" clip-rule="evenodd" d="M157.842 164.876C157.913 164.689 158.121 164.596 158.307 164.667L161.447 165.863C161.633 165.933 161.726 166.142 161.656 166.328C161.585 166.514 161.376 166.608 161.19 166.537L158.05 165.341C157.864 165.27 157.771 165.062 157.842 164.876Z" fill="#1B0045"/>
<path fill-rule="evenodd" clip-rule="evenodd" d="M156.511 166.735C156.629 166.575 156.854 166.539 157.015 166.657L159.782 168.675C159.943 168.792 159.978 169.018 159.861 169.179C159.743 169.339 159.518 169.375 159.357 169.257L156.59 167.239C156.429 167.122 156.394 166.896 156.511 166.735Z" fill="#1B0045"/>
<path fill-rule="evenodd" clip-rule="evenodd" d="M180.816 61.3967C180.927 61.5615 180.884 61.7858 180.72 61.8977L179.418 62.7813C179.253 62.8932 179.029 62.8503 178.917 62.6854C178.805 62.5206 178.848 62.2963 179.013 62.1845L180.315 61.3008C180.479 61.189 180.704 61.2319 180.816 61.3967Z" fill="black"/>
<path fill-rule="evenodd" clip-rule="evenodd" d="M172.441 59.3216C172.634 59.3702 172.752 59.5661 172.703 59.7593L172.613 60.1182C172.607 60.1401 172.6 60.1614 172.59 60.1818C172.572 60.2213 172.583 60.2836 172.626 60.3188C172.636 60.3265 172.645 60.3347 172.653 60.3433L172.698 60.3884C172.839 60.5293 172.839 60.7576 172.698 60.8985C172.558 61.0393 172.329 61.0393 172.188 60.8985L172.154 60.8645C171.887 60.6352 171.784 60.2498 171.92 59.9143L172.003 59.5836C172.052 59.3904 172.248 59.2731 172.441 59.3216Z" fill="black"/>
<path fill-rule="evenodd" clip-rule="evenodd" d="M173.639 61.6173C173.795 61.742 173.82 61.969 173.695 62.1244C173.411 62.4776 173.027 62.6446 172.687 62.6965C172.517 62.7225 172.35 62.721 172.202 62.696C172.061 62.6724 171.906 62.6223 171.784 62.5249C171.628 62.4006 171.603 62.1737 171.727 62.018C171.851 61.8627 172.077 61.837 172.233 61.9604C172.232 61.9597 172.231 61.9593 172.232 61.9592C172.232 61.9588 172.257 61.9739 172.322 61.9847C172.39 61.9962 172.479 61.9985 172.578 61.9834C172.776 61.9532 172.983 61.8588 173.132 61.6728C173.257 61.5175 173.484 61.4926 173.639 61.6173Z" fill="black"/>
<path d="M174.521 59.4172C174.745 59.4172 174.925 59.2368 174.925 59.0132C174.925 58.7914 174.745 58.6093 174.521 58.6093C174.297 58.6093 174.117 58.7914 174.117 59.0132C174.117 59.2368 174.297 59.4172 174.521 59.4172Z" fill="#231F20"/>
<path d="M170.947 58.878C171.172 58.878 171.351 58.6976 171.351 58.4758C171.351 58.2522 171.172 58.0719 170.947 58.0719C170.725 58.0719 170.544 58.2522 170.544 58.4758C170.544 58.6976 170.725 58.878 170.947 58.878Z" fill="#231F20"/>
<path fill-rule="evenodd" clip-rule="evenodd" d="M177.419 66.4847C177.504 66.6651 177.426 66.8798 177.246 66.9644L177.092 66.6378C177.246 66.9644 177.246 66.9644 177.246 66.9644L177.244 66.9651L177.241 66.9665L177.231 66.9712C177.222 66.9751 177.21 66.9806 177.194 66.9876C177.163 67.0016 177.117 67.0214 177.057 67.046C176.939 67.0951 176.766 67.1629 176.546 67.2401C176.107 67.3943 175.477 67.5864 174.711 67.7399C174.515 67.779 174.325 67.6524 174.286 67.457C174.247 67.2617 174.374 67.0717 174.569 67.0326C175.297 66.8867 175.894 66.7046 176.307 66.5595C176.514 66.487 176.674 66.4239 176.782 66.3794C176.835 66.3571 176.876 66.3396 176.903 66.3278C176.916 66.322 176.926 66.3176 176.932 66.3147L176.938 66.3118L176.939 66.3113C177.12 66.2268 177.334 66.3044 177.419 66.4847Z" fill="black"/>
<path fill-rule="evenodd" clip-rule="evenodd" d="M173.982 92.8353C172.536 92.8353 167.882 93.2071 165.79 93.6498C165.595 93.691 165.403 93.5664 165.362 93.3716C165.321 93.1767 165.446 92.9853 165.64 92.944C167.793 92.4887 172.498 92.1139 173.982 92.1139C174.181 92.1139 174.342 92.2754 174.342 92.4746C174.342 92.6738 174.181 92.8353 173.982 92.8353Z" fill="black"/>
<path fill-rule="evenodd" clip-rule="evenodd" d="M174.207 94.5946C174.226 94.7929 174.08 94.9686 173.881 94.9869L166.122 95.7047C165.923 95.723 165.748 95.5771 165.729 95.3788C165.711 95.1804 165.857 95.0047 166.055 94.9864L173.815 94.2687C174.013 94.2503 174.189 94.3962 174.207 94.5946Z" fill="black"/>
<path fill-rule="evenodd" clip-rule="evenodd" d="M175.644 90.5961C175.65 90.7952 175.493 90.9612 175.294 90.9668L172.692 91.0408C172.493 91.0464 172.327 90.8896 172.321 90.6905C172.315 90.4914 172.472 90.3254 172.671 90.3197L175.273 90.2458C175.473 90.2401 175.639 90.3969 175.644 90.5961Z" fill="black"/>
<path fill-rule="evenodd" clip-rule="evenodd" d="M142.433 86.3916C142.465 86.5883 142.331 86.7736 142.135 86.8056C140.343 87.0971 138.416 87.8264 136.872 88.803C136.704 88.9095 136.481 88.8593 136.374 88.691C136.268 88.5227 136.318 88.2999 136.486 88.1934C138.113 87.1647 140.131 86.4007 142.019 86.0936C142.215 86.0616 142.401 86.195 142.433 86.3916Z" fill="black"/>
<path fill-rule="evenodd" clip-rule="evenodd" d="M142.593 88.4373C142.635 88.6321 142.511 88.8238 142.316 88.8653C140.594 89.2327 138.96 89.8309 137.686 90.7752C137.526 90.8939 137.3 90.8603 137.181 90.7002C137.062 90.5402 137.096 90.3143 137.256 90.1957C138.644 89.1671 140.389 88.5391 142.165 88.1599C142.36 88.1183 142.552 88.2425 142.593 88.4373Z" fill="black"/>
<path fill-rule="evenodd" clip-rule="evenodd" d="M141.748 91.5894C141.748 91.5894 141.748 91.5894 141.748 91.5894L141.747 91.5895L141.744 91.59L141.731 91.5925C141.718 91.5947 141.699 91.5983 141.674 91.6031C141.624 91.6128 141.55 91.6278 141.456 91.6484C141.27 91.6897 141.006 91.7536 140.701 91.8434C140.088 92.0242 139.328 92.3045 138.696 92.7053C138.527 92.8119 138.304 92.762 138.198 92.5938C138.091 92.4256 138.141 92.2027 138.309 92.0961C139.023 91.6438 139.855 91.3407 140.497 91.1514C140.821 91.0561 141.101 90.9882 141.301 90.9441C141.401 90.9219 141.481 90.9057 141.537 90.8949C141.565 90.8895 141.587 90.8855 141.602 90.8827C141.609 90.8814 141.615 90.8803 141.619 90.8796L141.624 90.8787L141.626 90.8784C141.626 90.8784 141.626 90.8783 141.687 91.2339L141.626 90.8784C141.823 90.8449 142.009 90.9769 142.043 91.1732C142.076 91.3695 141.944 91.5559 141.748 91.5894Z" fill="black"/>
<path fill-rule="evenodd" clip-rule="evenodd" d="M180.484 49.6134C180.539 49.422 180.739 49.3116 180.931 49.3667C182.175 49.7252 183.204 50.3208 183.912 51.029L183.914 51.0309C184.852 51.9834 185.536 52.8622 185.815 53.9441C185.864 54.137 185.748 54.3337 185.556 54.3834C185.363 54.4331 185.166 54.317 185.116 54.1242C184.887 53.2335 184.316 52.4679 183.401 51.5381C182.792 50.9302 181.877 50.3901 180.731 50.0599C180.54 50.0047 180.429 49.8048 180.484 49.6134Z" fill="#231F20"/>
<path fill-rule="evenodd" clip-rule="evenodd" d="M138.424 85.3082C138.424 85.3082 138.424 85.3082 138.353 84.9546L138.424 85.3082C138.228 85.3473 138.038 85.2207 137.999 85.0254C137.96 84.8301 138.087 84.64 138.282 84.6009L138.353 84.9544C138.282 84.6009 138.282 84.6009 138.282 84.6009L138.389 84.5796C138.457 84.5661 138.554 84.5469 138.672 84.5239C138.906 84.4779 139.221 84.4169 139.542 84.3568C139.863 84.2968 140.191 84.2373 140.452 84.1947C140.582 84.1734 140.698 84.1557 140.79 84.1443C140.835 84.1387 140.878 84.134 140.916 84.1315L140.916 84.1314C140.94 84.1298 140.996 84.1259 141.052 84.1343C141.731 84.2302 142.275 84.507 142.498 85.02C142.499 85.0229 142.5 85.0258 142.501 85.0287C142.643 85.3797 142.584 85.756 142.504 86.025C142.481 86.1043 142.454 86.1802 142.425 86.2507C142.668 86.385 142.961 86.6288 143.069 87.0641L143.07 87.0678C143.17 87.489 143.005 87.8906 142.845 88.1629C142.791 88.2543 142.734 88.3392 142.676 88.4152C142.726 88.4553 142.776 88.4998 142.825 88.5484C143.024 88.7479 143.23 89.0515 143.229 89.4609C143.266 89.748 143.161 90.0213 143.029 90.2433C142.888 90.4801 142.688 90.704 142.478 90.8981C142.458 90.9172 142.437 90.9361 142.416 90.9549C142.573 90.9979 142.716 91.0566 142.842 91.1336C143.193 91.3482 143.379 91.6866 143.379 92.1013C143.379 92.5503 143.123 92.9457 142.853 93.2324C142.576 93.526 142.231 93.7629 141.94 93.8942C141.759 93.9763 141.545 93.8958 141.463 93.7143C141.381 93.5329 141.462 93.3192 141.643 93.237C141.847 93.1448 142.115 92.9632 142.328 92.7375C142.547 92.5048 142.657 92.2799 142.657 92.1013C142.657 91.9317 142.597 91.8292 142.466 91.7489C142.308 91.6522 142.027 91.5801 141.583 91.5801C141.583 91.5801 141.583 91.5801 141.583 91.5801C141.583 91.5804 141.563 91.5834 141.483 91.6183C141.478 91.6206 141.472 91.623 141.466 91.6257C141.433 91.6402 141.389 91.6599 141.345 91.6761C141.292 91.6958 141.221 91.7185 141.139 91.7263C140.955 91.7441 140.787 91.6193 140.751 91.4377C140.715 91.256 140.822 91.0765 140.999 91.0224C141.196 90.9624 141.62 90.7102 141.988 90.3691C142.168 90.2027 142.315 90.0316 142.41 89.8738C142.507 89.7104 142.522 89.6031 142.513 89.5445C142.509 89.5214 142.507 89.498 142.508 89.4746C142.512 89.3168 142.439 89.1825 142.315 89.0584C142.206 88.95 142.089 88.8771 141.994 88.8184C141.976 88.8071 141.958 88.7964 141.942 88.7861C141.847 88.7254 141.786 88.6235 141.777 88.5109C141.768 88.3983 141.812 88.2879 141.896 88.2127C141.946 88.1681 142.1 88.0064 142.223 87.7975C142.35 87.5809 142.403 87.3845 142.368 87.2361C142.299 86.9605 142.084 86.8793 141.883 86.803C141.851 86.7912 141.82 86.7794 141.79 86.7671C141.689 86.7254 141.611 86.6397 141.581 86.5341C141.55 86.4286 141.569 86.3148 141.632 86.2251C141.661 86.1854 141.752 86.0236 141.813 85.8197C141.874 85.6127 141.883 85.4299 141.834 85.3031C141.757 85.1307 141.526 84.933 140.968 84.8509C140.967 84.851 140.966 84.851 140.965 84.8511C140.947 84.8524 140.918 84.8552 140.879 84.8601C140.801 84.8699 140.695 84.8858 140.569 84.9065C140.316 84.9479 139.994 85.0062 139.675 85.0659C139.357 85.1255 139.044 85.1861 138.81 85.2318C138.694 85.2547 138.597 85.2738 138.529 85.2872L138.424 85.3082ZM140.981 84.8504C140.981 84.8504 140.98 84.8504 140.978 84.8504C140.98 84.8503 140.981 84.8504 140.981 84.8504Z" fill="black"/>
<path fill-rule="evenodd" clip-rule="evenodd" d="M174.492 97.1971C174.493 97.3963 174.333 97.5588 174.134 97.5601L171.847 97.5745C171.648 97.5758 171.485 97.4153 171.484 97.2161C171.483 97.0169 171.643 96.8544 171.842 96.8532L174.129 96.8387C174.328 96.8375 174.491 96.9979 174.492 97.1971Z" fill="black"/>
<path d="M68.7556 51.0658C69.4138 51.0658 69.944 50.5338 69.944 49.8774C69.944 49.2191 69.4138 48.6871 68.7556 48.6871C68.0991 48.6871 67.5653 49.2191 67.5653 49.8774C67.5653 50.5338 68.0991 51.0658 68.7556 51.0658Z" fill="#EA5A0F"/>
<path fill-rule="evenodd" clip-rule="evenodd" d="M58.4783 86.2558C58.6361 86.3773 58.6655 86.6038 58.5439 86.7616L57.1896 88.5199C57.0681 88.6777 56.8416 88.7071 56.6838 88.5855C56.526 88.464 56.4966 88.2375 56.6181 88.0797L57.9725 86.3214C58.094 86.1636 58.3205 86.1342 58.4783 86.2558Z" fill="black"/>
<path d="M76.4703 71.9794C75.4568 71.7305 73.3469 71.5538 73.3469 71.5538L72.9231 68.4105C73.2549 68.452 73.5741 68.4827 73.906 68.4827C74.9717 68.4827 76.0357 68.2248 76.9879 67.7271C78.6939 66.8182 79.2637 64.6667 78.6434 61.5127C78.436 60.4884 78.3422 59.4947 78.2286 58.4307C78.1457 57.612 78.0627 56.7644 77.9293 55.8754C77.6696 54.2415 76.4505 53.3416 75.446 52.2867C73.8843 51.7078 72.9844 51.4697 70.6058 51.4697C68.8277 51.4697 67.3688 51.7691 65.9423 52.8133C61.8775 55.7924 62.0434 59.2567 62.1769 60.8707L63.3671 71.4402C63.3671 71.4402 61.4736 71.6692 59.8506 71.8441C59.6955 71.864 59.3636 71.9054 59.3636 71.9054L69.852 86.4369L76.4703 71.9794Z" fill="#E29B6F"/>
<path d="M104.302 70.4591C103.961 70.0137 103.443 69.9614 103.402 69.9614C103.609 69.0525 103.227 68.5043 102.875 68.2031C102.493 67.893 102.047 67.7793 102.037 67.7793C101.82 66.517 101.034 66.2591 100.403 66.2591C100.001 66.2591 99.6904 66.3727 99.6904 66.3727C99.6904 66.3619 99.7102 64.8633 98.3343 64.3566C98.1287 64.2844 97.8275 64.252 97.5805 64.2736C97.1459 64.3043 95.384 66.6468 95.4074 66.1653C95.5625 64.9463 95.4074 62.7949 95.0558 62.4216C94.953 62.3188 94.8898 62.3386 94.6734 62.3386C93.7014 62.3386 92.3669 66.7244 91.871 68.6594C91.55 69.9506 91.1262 72.1958 90.7439 74.3364C90.2372 77.1911 89.8134 79.8799 89.8134 79.9322C89.7809 79.9106 88.643 79.1568 86.7928 77.7916L83.2131 89.7984C85.9235 91.2465 89.3157 92.6946 92.1091 92.6946C93.0089 92.6946 93.8042 92.5395 94.4877 92.2401C97.5805 90.884 100.165 81.887 101.696 75.0812C102.192 74.7187 104.229 73.6024 104.531 71.9577C104.653 71.3067 104.572 70.809 104.302 70.4591Z" fill="#E29B6F"/>
<path fill-rule="evenodd" clip-rule="evenodd" d="M103.573 69.644C103.748 69.7386 103.814 69.9574 103.719 70.1327C103.694 70.1793 103.648 70.2381 103.619 70.2756C103.58 70.3255 103.529 70.3893 103.469 70.4631C103.349 70.6109 103.188 70.8052 103.01 71.0202C102.984 71.0523 102.957 71.0849 102.929 71.1178C102.589 71.5281 102.199 71.9993 101.894 72.3795C101.77 72.5351 101.543 72.5604 101.388 72.436C101.232 72.3116 101.207 72.0846 101.331 71.9291C101.639 71.5435 102.034 71.0675 102.373 70.6585C102.401 70.6252 102.428 70.5923 102.455 70.5599C102.633 70.3443 102.792 70.1527 102.91 70.0081C102.968 69.9356 103.016 69.8765 103.05 69.833C103.079 69.7951 103.089 69.7805 103.089 69.7807C103.09 69.7808 103.087 69.7842 103.084 69.7901C103.179 69.6148 103.398 69.5494 103.573 69.644Z" fill="#533623"/>
<path fill-rule="evenodd" clip-rule="evenodd" d="M102.258 67.4945C102.415 67.6167 102.444 67.8433 102.321 68.0006L102.037 67.7793L101.752 67.5581C101.874 67.4008 102.101 67.3723 102.258 67.4945ZM101.752 67.5581L102.037 67.7793C102.321 68.0006 102.321 68.0006 102.321 68.0006L102.303 68.0239C102.292 68.0389 102.274 68.061 102.252 68.0892C102.208 68.1458 102.143 68.2274 102.064 68.3275C101.905 68.5278 101.684 68.803 101.437 69.1024C100.949 69.6952 100.343 70.403 99.9152 70.8036C99.7698 70.9397 99.5416 70.9322 99.4055 70.7867C99.2693 70.6413 99.2769 70.4131 99.4223 70.277C99.8113 69.9129 100.389 69.2403 100.881 68.6438C101.124 68.3485 101.342 68.0768 101.499 67.8789C101.578 67.7799 101.641 67.6995 101.685 67.644C101.706 67.6162 101.723 67.5946 101.735 67.58L101.752 67.5581Z" fill="#533623"/>
<path fill-rule="evenodd" clip-rule="evenodd" d="M99.9121 66.0882C100.069 66.2106 100.097 66.4373 99.9749 66.5944L98.0093 69.1173C97.8868 69.2744 97.6602 69.3026 97.5031 69.1801C97.346 69.0577 97.3178 68.8311 97.4403 68.674L99.4059 66.1511C99.5283 65.9939 99.755 65.9658 99.9121 66.0882Z" fill="#533623"/>
<path d="M57.7713 95.9839L56.2204 88.527L54.3575 91.4232L45.2578 84.0799C48.2766 79.0738 50.8428 75.8873 53.335 74.0677C55.5477 72.4753 57.3998 72.1345 59.4358 71.8964L69.5725 83.5624L76.1818 71.9163C77.8048 72.2264 79.2836 72.7747 80.5351 73.5303C82.3962 74.6465 84.5999 76.1776 87.3103 78.1523L83.6567 90.0238C81.7452 89.2195 80.0085 88.1122 78.3639 86.9653L77.5469 95.9623H57.7713V95.9839Z" fill="#666D68"/>
<path d="M61.506 68.2031C60.0579 68.2031 58.4854 67.6134 58.4349 65.9489C58.3826 64.5008 59.4069 63.7254 60.2653 63.3124C61.2067 62.8778 62.148 62.7642 62.157 62.7642L61.9298 60.6633C61.7964 59.0511 63.9676 57.2098 68.0432 54.2307C69.4805 53.1757 68.6221 51.5725 70.3912 51.5725C72.7698 51.5725 72.6652 52.0685 73.8663 53.5797C74.3207 54.1694 74.6922 53.6825 74.8888 54.3966C75.0547 54.9448 73.172 53.4336 73.2549 53.9818C73.2549 53.9818 74.4235 55.3073 73.9384 55.3073C73.4731 55.3073 75.7057 55.6986 74.5696 55.4209C74.5588 55.4516 72.7788 58.4397 69.9151 60.1674C69.8826 60.1367 67.9909 58.0268 66.2849 58.0268C65.6736 58.0268 65.1669 58.2955 64.7431 58.822C63.2228 60.7769 66.3679 63.7452 66.3986 63.7777C65.8287 65.9597 64.6511 67.3555 62.7774 68.0174C62.4474 68.131 61.9821 68.2031 61.506 68.2031Z" fill="#231F20"/>
<path d="M61.9443 60.8454C61.5854 59.1791 61.598 54.283 65.6736 51.3147C67.1109 50.2597 68.8385 49.7529 70.6166 49.7529C72.9953 49.7529 75.3955 50.7664 76.5948 52.2758C77.0492 52.8655 77.3702 53.5166 77.5668 54.2307C77.7327 54.7789 77.8048 55.172 77.8878 55.7203L68.5301 58.9375C67.7421 58.4812 67.1001 58.2432 66.5212 58.2432C65.9116 58.2432 65.4049 58.5119 64.9793 59.0403C64.7214 59.3703 64.3698 59.8464 64.3391 60.2701L62.2887 60.7841L61.9443 60.8454Z" fill="#EA5A0F"/>
<path d="M69.9349 58.4614C69.9043 58.4091 67.8052 53.3939 68.8385 49.9279C69.4282 49.8034 70.0287 49.7421 70.6382 49.7421C72.997 49.7421 75.4063 50.7556 76.6164 52.265C77.0708 52.8547 77.3918 53.5075 77.5884 54.2199C77.7543 54.7681 77.8571 55.2333 77.9401 55.7816L69.9349 58.4614Z" fill="#EE731B"/>
<path fill-rule="evenodd" clip-rule="evenodd" d="M70.4977 67.4814C70.5826 67.3012 70.7975 67.2239 70.9777 67.3088C71.6347 67.6182 72.3163 67.8389 73.0325 68.0668C73.2223 68.1272 73.3272 68.3301 73.2668 68.5199C73.2064 68.7097 73.0036 68.8146 72.8138 68.7542C72.1017 68.5277 71.3766 68.294 70.6704 67.9614C70.4901 67.8765 70.4128 67.6616 70.4977 67.4814Z" fill="#533623"/>
<path fill-rule="evenodd" clip-rule="evenodd" d="M66.4507 60.5692C66.5713 60.4107 66.7976 60.3801 66.9561 60.5007L68.3014 61.525C68.4599 61.6457 68.4906 61.872 68.3699 62.0305C68.2492 62.189 68.0229 62.2196 67.8644 62.099L66.5191 61.0747C66.3606 60.954 66.33 60.7277 66.4507 60.5692Z" fill="#533623"/>
<path fill-rule="evenodd" clip-rule="evenodd" d="M74.1707 63.5269C74.343 63.4271 74.5637 63.4859 74.6635 63.6583C74.8272 63.9411 75.1295 64.0317 75.4181 64.0079C75.6167 63.9915 75.7909 64.1392 75.8072 64.3377C75.8236 64.5362 75.676 64.7104 75.4775 64.7268C75.0231 64.7643 74.3913 64.6278 74.0392 64.0197C73.9394 63.8473 73.9983 63.6267 74.1707 63.5269Z" fill="#533623"/>
<path d="M73.3685 61.0366C73.6246 61.0366 73.8338 60.8274 73.8338 60.5713C73.8338 60.3134 73.6246 60.106 73.3685 60.106C73.1106 60.106 72.9033 60.3134 72.9033 60.5713C72.9033 60.8274 73.1106 61.0366 73.3685 61.0366Z" fill="#231F20"/>
<path d="M76.9157 60.4252C77.1736 60.4252 77.381 60.2179 77.381 59.96C77.381 59.7039 77.1736 59.4947 76.9157 59.4947C76.6597 59.4947 76.4505 59.7039 76.4505 59.96C76.4505 60.2179 76.6597 60.4252 76.9157 60.4252Z" fill="#231F20"/>
<path fill-rule="evenodd" clip-rule="evenodd" d="M75.7169 61.2768C75.904 61.2083 76.1111 61.3044 76.1796 61.4914C76.2419 61.6614 76.2992 61.8578 76.3344 62.0335C76.3519 62.121 76.3656 62.2113 76.37 62.2949C76.3737 62.3643 76.3751 62.4829 76.3286 62.5938C76.3229 62.6072 76.3164 62.6203 76.3092 62.633C76.1829 62.854 75.9895 63.0566 75.6965 63.1641C75.5095 63.2327 75.3023 63.1368 75.2337 62.9498C75.165 62.7628 75.261 62.5555 75.448 62.4869C75.5306 62.4566 75.595 62.4052 75.6494 62.328C75.6471 62.2914 75.64 62.2399 75.6271 62.1752C75.6001 62.0404 75.5536 61.8797 75.5023 61.7395C75.4338 61.5525 75.5299 61.3453 75.7169 61.2768ZM75.6499 62.3627C75.6498 62.3626 75.6499 62.3619 75.65 62.3606C75.65 62.362 75.6499 62.3627 75.6499 62.3627Z" fill="#533623"/>
<path fill-rule="evenodd" clip-rule="evenodd" d="M62.9848 71.451C62.9848 71.2518 63.1463 71.0903 63.3454 71.0903H64.9072C65.1063 71.0903 65.2678 71.2518 65.2678 71.451C65.2678 71.6502 65.1063 71.8116 64.9072 71.8116H63.3454C63.1463 71.8116 62.9848 71.6502 62.9848 71.451Z" fill="#533623"/>
<path fill-rule="evenodd" clip-rule="evenodd" d="M73.3017 71.1962C73.4992 71.1702 73.6803 71.3093 73.7063 71.5068L73.8614 72.6861C73.8874 72.8836 73.7483 73.0648 73.5508 73.0908C73.3533 73.1167 73.1722 72.9777 73.1462 72.7802L72.9911 71.6008C72.9651 71.4033 73.1042 71.2222 73.3017 71.1962Z" fill="#533623"/>
<path fill-rule="evenodd" clip-rule="evenodd" d="M81.8206 54.5211C81.8833 54.7102 81.7808 54.9143 81.5918 54.977L68.8438 59.2041C68.6547 59.2668 68.4506 59.1643 68.3879 58.9752C68.3252 58.7862 68.4277 58.5821 68.6168 58.5194L81.3647 54.2923C81.5538 54.2296 81.7579 54.3321 81.8206 54.5211Z" fill="#4B4850"/>
<path d="M73.3577 95.6629L58.0418 95.5908C58.0201 95.6323 54.9075 99.5618 52.1466 108.467C50.6768 113.163 49.9952 118.903 49.3441 124.477C48.8987 128.334 48.4533 131.965 47.8023 134.944C47.5119 136.289 46.8194 137.851 46.0133 139.67C44.3164 143.508 42.0099 148.741 41.8764 155.619L57.3889 155.722L57.5657 155.733C58.3303 152.939 59.3348 149.713 60.3068 146.693C61.4537 143.124 62.6223 139.454 63.4194 136.289C64.3084 132.762 65.147 129.389 65.9333 126.215C66.853 129.297 67.412 132.203 66.8223 134.872C66.6979 135.45 66.5536 136.092 66.3877 136.763C65.3634 141.055 63.9784 146.941 64.1642 155.619L78.8399 155.65L78.8814 155.659C79.2331 153.363 79.6785 150.902 80.1528 148.337C80.8976 144.375 81.664 140.271 82.0463 136.65C83.2762 124.964 82.0048 114.456 80.7226 107.681C79.3359 100.348 77.61 95.7152 77.5992 95.6629L64.3301 95.58" fill="#EE731B"/>
<path opacity="0.2" d="M64.2039 151.068C64.4726 144.79 65.5798 140.157 66.3769 136.774C66.541 136.123 66.6763 135.492 66.8115 134.913C67.2137 133.124 67.0892 131.22 66.7069 129.223C66.5013 128.179 66.3462 127.642 66.2002 127.124C66.1587 126.98 66.1172 126.845 66.0866 126.711C66.0451 126.567 65.9423 126.215 65.9423 126.215C65.9423 126.215 66.0974 125.563 66.2002 125.15C66.3553 124.549 66.532 123.785 66.9341 122.171C67.917 118.2 68.0216 117.765 69.0026 113.742L69.531 111.579L69.8826 110.131C71.0819 110.131 70.916 111.001 70.9899 112.191L71.5165 120.216C71.9818 127.373 70.7825 134.653 68.0522 141.263C66.2417 145.659 64.9595 148.968 64.2039 151.068Z" fill="#6D6973"/>
<path fill-rule="evenodd" clip-rule="evenodd" d="M69.9676 109.781C70.1612 109.828 70.2801 110.023 70.2332 110.216C69.4615 113.401 68.6517 116.685 67.714 120.487C67.2686 122.294 66.7944 124.217 66.2817 126.302C66.2341 126.495 66.0388 126.613 65.8453 126.566C65.6519 126.518 65.5337 126.323 65.5812 126.129C66.0942 124.043 66.5686 122.119 67.014 120.313C67.9515 116.511 68.7608 113.229 69.5321 110.046C69.579 109.853 69.774 109.734 69.9676 109.781Z" fill="#4B4850"/>
<path fill-rule="evenodd" clip-rule="evenodd" d="M62.0367 95.5565C62.2269 95.6155 62.3333 95.8175 62.2743 96.0078C59.65 104.469 58.2056 112.415 57.1974 119.129C56.8813 121.234 56.6076 123.223 56.3533 125.071C55.7991 129.098 55.3373 132.454 54.7308 134.876L54.7308 134.876C54.2163 136.928 53.316 139.226 52.3329 141.735C52.0365 142.492 51.7326 143.267 51.4295 144.061C50.1147 147.505 48.7987 151.328 48.1059 155.532C48.0735 155.728 47.8879 155.861 47.6914 155.829C47.4948 155.797 47.3617 155.611 47.3941 155.415C48.0989 151.138 49.4356 147.261 50.7556 143.804C51.0661 142.991 51.3748 142.203 51.6739 141.439C52.6525 138.941 53.5289 136.704 54.0311 134.701C54.6277 132.318 55.0807 129.026 55.6309 125.028C55.8863 123.171 56.1626 121.163 56.4841 119.022C57.4948 112.291 58.9457 104.305 61.5854 95.7941C61.6444 95.6039 61.8464 95.4975 62.0367 95.5565Z" fill="#4B4850"/>
<path opacity="0.2" d="M57.7929 95.9623L56.2204 88.527L58.9092 84.2134L65.1867 95.9623H57.7929Z" fill="#1C1817"/>
<path opacity="0.2" d="M52.1556 108.467C54.9165 99.5618 58.0291 95.6323 58.0508 95.5908H65.1344L52.1556 108.467Z" fill="#6D6973"/>
<path d="M48.5363 105.446C45.6509 105.446 43.3642 104.588 41.8855 102.965C40.3851 101.309 39.7557 98.8477 40.0659 95.8487C40.2823 93.7081 41.6997 90.5955 42.8683 88.3503C44.0369 86.0762 45.1748 84.1935 45.3389 83.9447C45.3497 83.9339 45.3714 83.9248 45.3804 83.9339L54.4315 91.2465C54.4405 91.2573 54.4405 91.2771 54.4405 91.288L52.5271 94.2455C52.5181 94.2671 52.5271 94.2978 52.5596 94.2869C54.7507 93.9046 56.9544 93.6143 59.1058 93.4592C60.864 93.3456 62.1354 93.2951 63.2427 93.2951C66.7286 93.2951 68.7339 93.8018 71.2172 95.3113C73.6373 96.79 73.9474 97.9171 73.7923 98.6006C73.6264 99.3129 72.9448 99.697 72.4777 99.7583C72.4687 99.7583 72.4579 99.7692 72.4579 99.78C72.447 100.368 71.8988 101.237 70.7519 101.237C70.6383 101.237 70.5228 101.226 70.4092 101.206C70.4002 101.206 70.3786 101.217 70.3786 101.226C70.3678 101.32 70.3173 101.63 70.1207 101.93C69.9025 102.272 69.448 102.665 68.5482 102.665H68.238C68.2272 102.665 68.2073 102.674 68.2073 102.685C68.2073 102.829 68.1767 103.369 67.7727 103.812C67.3904 104.205 66.8206 104.413 66.0343 104.413C65.6213 104.413 64.8242 104.288 64.4527 103.854C64.276 103.648 64.2039 103.389 64.267 103.089C64.267 103.078 64.2562 103.058 64.2453 103.058C63.542 102.829 63.387 102.716 63.3563 102.674C63.3455 102.665 63.3365 102.665 63.3256 102.665C63.1183 102.727 61.6088 103.089 60.067 103.089C59.5512 103.089 59.095 103.048 58.7018 102.965C58.6928 102.965 58.6928 102.965 58.6928 102.965C58.4854 103.048 54.3269 104.939 50.1178 105.343C49.5588 105.415 49.043 105.446 48.5363 105.446Z" fill="#E29B6F"/>
<path fill-rule="evenodd" clip-rule="evenodd" d="M64.6092 99.996C64.6891 99.8135 64.9018 99.7304 65.0843 99.8103C66.7497 100.54 68.0034 101.413 68.4757 102.478C68.5565 102.66 68.4744 102.873 68.2923 102.954C68.1102 103.034 67.8971 102.952 67.8163 102.77C67.4627 101.973 66.4405 101.192 64.7949 100.471C64.6125 100.391 64.5293 100.178 64.6092 99.996Z" fill="#533623"/>
<path fill-rule="evenodd" clip-rule="evenodd" d="M66.1491 97.7315C66.2287 97.5489 66.4412 97.4654 66.6238 97.545C69.2317 98.6816 70.4158 99.8854 70.6601 101.105C70.6992 101.3 70.5726 101.49 70.3773 101.529C70.182 101.569 69.9919 101.442 69.9528 101.247C69.7824 100.396 68.8998 99.3239 66.3356 98.2063C66.153 98.1267 66.0695 97.9141 66.1491 97.7315Z" fill="#533623"/>
<path fill-rule="evenodd" clip-rule="evenodd" d="M68.1364 95.9415C68.2285 95.7649 68.4464 95.6964 68.623 95.7886C69.8402 96.4235 70.8512 97.1666 71.563 97.8515C71.9185 98.1935 72.2059 98.5273 72.4072 98.832C72.5999 99.1238 72.7464 99.4373 72.7464 99.7277C72.7464 99.9269 72.5849 100.088 72.3857 100.088C72.1865 100.088 72.0251 99.9269 72.0251 99.7277C72.0251 99.6557 71.9777 99.4905 71.8053 99.2296C71.6415 98.9816 71.3925 98.6885 71.0629 98.3713C70.4046 97.738 69.4508 97.0339 68.2894 96.4281C68.1128 96.336 68.0443 96.1182 68.1364 95.9415Z" fill="#533623"/>
<path fill-rule="evenodd" clip-rule="evenodd" d="M95.1504 69.739C95.2901 69.5971 95.5185 69.5953 95.6604 69.735C96.3995 70.4625 96.9783 71.458 97.3833 72.4183C97.788 73.3779 98.0338 74.3374 98.0844 75.0127C98.0993 75.2114 97.9503 75.3845 97.7517 75.3993C97.5531 75.4142 97.38 75.2653 97.3651 75.0666C97.3219 74.4904 97.1025 73.6087 96.7186 72.6986C96.3351 71.7893 95.8022 70.8867 95.1544 70.2491C95.0125 70.1094 95.0107 69.881 95.1504 69.739Z" fill="#533623"/>
<path fill-rule="evenodd" clip-rule="evenodd" d="M89.7922 79.5613C89.991 79.5496 90.1617 79.7013 90.1734 79.9002L90.3177 82.3509C90.3294 82.5498 90.1777 82.7205 89.9788 82.7322C89.78 82.7439 89.6093 82.5922 89.5976 82.3933L89.4533 79.9426C89.4416 79.7437 89.5933 79.573 89.7922 79.5613Z" fill="#533623"/>
<path fill-rule="evenodd" clip-rule="evenodd" d="M78.6157 83.2855C78.8145 83.2991 78.9645 83.4712 78.9509 83.6699L78.7237 86.9899C78.7101 87.1887 78.538 87.3387 78.3393 87.3251C78.1405 87.3115 77.9905 87.1394 78.0041 86.9407L78.2313 83.6207C78.2449 83.4219 78.417 83.2719 78.6157 83.2855Z" fill="black"/>
<path fill-rule="evenodd" clip-rule="evenodd" d="M57.7961 85.9973C57.9652 86.1026 58.0168 86.3251 57.9115 86.4942L56.5265 88.7177C56.4212 88.8868 56.1988 88.9385 56.0297 88.8331C55.8606 88.7278 55.8089 88.5054 55.9143 88.3363L57.2992 86.1128C57.4046 85.9437 57.627 85.892 57.7961 85.9973Z" fill="black"/>
<path fill-rule="evenodd" clip-rule="evenodd" d="M52.893 94.2036C52.9331 94.3987 52.8074 94.5894 52.6123 94.6294L49.1877 95.3327C48.9926 95.3728 48.8019 95.2471 48.7618 95.052C48.7218 94.8569 48.8475 94.6662 49.0426 94.6261L52.4672 93.9228C52.6623 93.8828 52.8529 94.0084 52.893 94.2036Z" fill="#533623"/>
<path opacity="0.2" d="M70.173 67.3033C71.475 68.0174 72.53 68.3077 72.8294 68.3799C72.8816 68.3889 72.9231 68.4304 72.9339 68.4935L73.2333 70.7783C73.2549 70.9028 73.089 70.9749 73.0061 70.8829L70.0071 67.5106C69.9241 67.397 70.0486 67.2311 70.173 67.3033Z" fill="#835437"/>
<path opacity="0.2" d="M63.1182 69.2274L64.9595 71.4095L63.3671 71.451L63.1182 69.2274Z" fill="#835437"/>
<path opacity="0.2" d="M89.8855 82.4858L88.3743 78.9295C89.2435 79.5805 89.8134 79.9214 89.8134 79.9214L89.8946 81.1729L89.8855 82.4858Z" fill="#835437"/>
<path opacity="0.2" d="M82.4485 89.4864C80.1131 88.2583 78.3855 86.9851 78.3639 86.9743L78.7065 82.0115L82.535 89.4503L82.4485 89.4864Z" fill="#1C1817"/>
<path opacity="0.2" d="M47.6671 95.2085L54.1736 91.7009L52.4983 94.3086L47.6671 95.2085Z" fill="#835437"/>
<path d="M43.6744 172.425L43.6636 172.405C43.0739 169.664 42.2786 164.968 41.9053 158.121C41.8638 157.129 41.8548 156.321 41.8638 155.598V155.578H57.6378L57.627 155.608C57.1203 157.48 56.5089 159.89 56.2925 162.021C56.0545 164.306 56.2925 165.815 57.0265 166.623C58.04 167.74 59.2085 168.474 60.3356 169.188L60.4709 169.271C61.8252 170.107 63.2228 170.966 64.0181 172.405V172.436H43.6852L43.6744 172.425Z" fill="#666D68"/>
<path fill-rule="evenodd" clip-rule="evenodd" d="M56.7025 165.313C56.7667 165.502 56.6658 165.707 56.4772 165.771L54.3096 166.509C54.121 166.573 53.9161 166.472 53.852 166.283C53.7878 166.095 53.8887 165.89 54.0772 165.826L56.2449 165.088C56.4334 165.024 56.6383 165.125 56.7025 165.313Z" fill="black"/>
<path fill-rule="evenodd" clip-rule="evenodd" d="M57.586 166.716C57.6982 166.881 57.6557 167.105 57.4912 167.217L55.5129 168.566C55.3483 168.678 55.1239 168.636 55.0117 168.471C54.8995 168.307 54.9419 168.082 55.1065 167.97L57.0848 166.621C57.2494 166.509 57.4737 166.551 57.586 166.716Z" fill="black"/>
<path d="M66.0144 172.425L66.0036 172.405C65.4139 169.675 64.6186 164.968 64.2453 158.112C64.2039 157.336 64.184 156.57 64.1624 155.836L64.1534 155.578H78.9121V155.598C77.9599 161.803 78.0952 165.195 79.3665 166.602C80.4215 167.761 81.6622 168.515 82.8723 169.249L82.9354 169.291C84.3727 170.16 85.6963 170.988 86.4934 172.405L86.5024 172.446L66.0144 172.425Z" fill="#666D68"/>
<path fill-rule="evenodd" clip-rule="evenodd" d="M78.618 163.6C78.6834 163.788 78.5839 163.993 78.3957 164.059L76.2588 164.802C76.0706 164.867 75.8651 164.768 75.7996 164.58C75.7342 164.391 75.8337 164.186 76.0219 164.121L78.1588 163.378C78.347 163.312 78.5525 163.412 78.618 163.6Z" fill="black"/>
<path fill-rule="evenodd" clip-rule="evenodd" d="M79.0769 165.507C79.1844 165.675 79.1356 165.898 78.9679 166.005L77.2241 167.124C77.0564 167.231 76.8333 167.182 76.7258 167.015C76.6182 166.847 76.667 166.624 76.8347 166.516L78.5786 165.398C78.7463 165.291 78.9693 165.34 79.0769 165.507Z" fill="black"/>
<path d="M66.6673 174.959C66.6673 174.959 66.3679 174.111 66.0054 172.405H86.4934C86.9172 173.159 87.1354 173.997 87.2076 174.959H66.6673Z" fill="#231F20"/>
<path d="M44.3272 174.989C44.3272 174.989 43.8096 173.087 43.6654 172.414V172.394H64.0091L64.0199 172.405C64.413 173.128 64.6295 173.976 64.7016 174.98V175L44.3272 174.989Z" fill="#231F20"/>
<path fill-rule="evenodd" clip-rule="evenodd" d="M96.0648 66.7608C96.2508 66.8321 96.3439 67.0406 96.2726 67.2266C96.0304 67.8593 96.2373 68.3132 96.5298 68.5354C96.8326 68.7654 97.2556 68.7813 97.5814 68.477C97.7234 68.3443 97.9451 68.348 98.0826 68.4855L98.1241 68.527C98.2247 68.6276 98.2567 68.7779 98.2059 68.9108C97.9654 69.5396 98.1772 69.9902 98.4796 70.2129C98.7956 70.4455 99.232 70.4572 99.5584 70.1536C99.6812 70.0393 99.8667 70.0248 100.006 70.1187C100.145 70.2125 100.201 70.3899 100.141 70.5466C99.8989 71.1786 100.108 71.6188 100.398 71.8309C100.701 72.0528 101.131 72.0645 101.461 71.757C101.556 71.6678 101.693 71.6374 101.818 71.6777L101.879 71.6975C101.97 71.7271 102.046 71.7921 102.09 71.878C102.133 71.963 102.14 72.0615 102.111 72.152C102.111 72.1523 102.111 72.1527 102.111 72.1533C102.11 72.1558 102.108 72.1612 102.106 72.1692C102.102 72.1853 102.096 72.2116 102.091 72.2457C102.08 72.3148 102.072 72.4108 102.084 72.5181C102.107 72.722 102.199 72.9778 102.522 73.1854C102.841 73.3905 103.06 73.3654 103.217 73.3032C103.388 73.2354 103.518 73.113 103.643 72.9953C103.657 72.9822 103.67 72.9692 103.684 72.9563C103.83 72.8204 104.058 72.8284 104.194 72.9741C104.33 73.1198 104.322 73.3481 104.176 73.4839C104.166 73.4935 104.154 73.5048 104.141 73.5176C104.023 73.6299 103.792 73.851 103.483 73.9737C103.105 74.1234 102.643 74.1207 102.132 73.7922C101.614 73.4592 101.422 73.0103 101.372 72.6353C100.889 72.7982 100.368 72.7024 99.9723 72.4132C99.5699 72.1189 99.3135 71.6421 99.3141 71.0719C98.8702 71.1678 98.4092 71.0568 98.0519 70.7938C97.6342 70.4862 97.3671 69.9841 97.3814 69.3855C96.9289 69.4967 96.4562 69.3853 96.0934 69.1098C95.5252 68.6782 95.2516 67.8761 95.599 66.9687C95.6702 66.7827 95.8788 66.6896 96.0648 66.7608ZM102.11 72.1543C102.11 72.1543 102.11 72.1542 102.11 72.1543Z" fill="#533623"/>
</svg>