<svg width="250" height="200" viewBox="0 0 250 200" fill="none" xmlns="http://www.w3.org/2000/svg">
<rect width="250" height="200" fill=""/>
<path d="M171.089 25H85.4399V95.1924H171.089V25Z" fill="#F5F0EC"/>
<path d="M140.943 36.64H115.57L115.871 40.242H140.624L140.943 36.64Z" fill="#232627"/>
<path d="M115.871 40.242L118.786 74.1231C118.986 76.5342 121.012 78.3777 123.425 78.3777H133.055C135.466 78.3777 137.493 76.5342 137.694 74.1231L140.608 40.242H115.871Z" fill="#666D68"/>
<path d="M117.344 57.3406L118.786 74.1392C118.986 76.5518 121.012 78.3938 123.425 78.3938H133.055C135.466 78.3938 137.493 76.5518 137.694 74.1392L139.134 57.3406H117.344Z" fill="#EA5A0F"/>
<path d="M128.249 67.3068C132.402 67.3068 135.769 62.8445 135.769 57.3406C135.769 51.8381 132.402 47.3758 128.249 47.3758C124.095 47.3758 120.728 51.8381 120.728 57.3406C120.728 62.8445 124.095 67.3068 128.249 67.3068Z" fill="#232627"/>
<path d="M128.249 63.5878C130.857 63.5878 132.971 60.7919 132.971 57.3406C132.971 53.8907 130.857 51.0948 128.249 51.0948C125.64 51.0948 123.524 53.8907 123.524 57.3406C123.524 60.7919 125.64 63.5878 128.249 63.5878Z" fill="#F5F0EC"/>
<path d="M134.462 78.2094H122.051V85.5788H134.462V78.2094Z" fill="#232627"/>
<path d="M103.26 62.9191H104.18C108.635 62.9191 112.237 66.5358 112.237 70.9747V85.5788H95.1867V70.9747C95.1867 66.5197 98.8048 62.9191 103.26 62.9191Z" fill="#666D68"/>
<path d="M112.237 76.3835H95.1867V85.5963H112.237V76.3835Z" fill="#EA5A0F"/>
<path d="M103.712 50.8096C105.034 50.8096 106.107 51.882 106.107 53.2046V59.2499C106.107 59.3011 106.057 59.3508 106.006 59.3508H101.434C101.384 59.3508 101.333 59.3011 101.333 59.2499V53.2046C101.333 51.882 102.405 50.8096 103.712 50.8096Z" fill="#EA5A0F"/>
<path d="M108.484 58.8153H98.9379V64.2754H108.484V58.8153Z" fill="#232627"/>
<path d="M100.68 70.1876C101.633 70.1876 102.405 69.4151 102.405 68.4626C102.405 67.5087 101.633 66.7377 100.68 66.7377C99.728 66.7377 98.9555 67.5087 98.9555 68.4626C98.9555 69.4151 99.728 70.1876 100.68 70.1876Z" fill="#F5F0EC"/>
<path d="M156.452 58.8314H149.167V75.9315H156.452V58.8314Z" fill="#232627"/>
<path d="M156.452 65.933H149.167V70.8401H156.452V65.933Z" fill="#EA5A0F"/>
<path d="M161.343 68.4787H144.243V85.5788H161.343V68.4787Z" fill="#666D68"/>
<path d="M152.734 80.2357C154.911 80.2196 157.072 80.739 158.997 81.7266V70.8576H146.554V81.6768C148.479 80.7215 150.591 80.2196 152.734 80.2357Z" fill="#EA5A0F"/>
<path d="M114.146 34.1952L116.173 32.0855L117.261 34.7819L120.124 34.2625L119.422 37.0921L122.051 38.3488L119.823 40.2244L121.197 42.7877L118.3 43.0042L117.897 45.8849L115.435 44.3444L113.425 46.438L112.32 43.7416L109.456 44.261L110.159 41.4475L107.546 40.1747L109.775 38.2991L108.385 35.7358L111.299 35.5354L111.684 32.6546L114.146 34.1952Z" fill="#FAFAFA"/>
<path opacity="0.2" d="M196.131 86.0689H150.323C146.695 86.0689 143.754 89.0096 143.754 92.638V138.241C143.754 141.869 146.695 144.81 150.323 144.81H196.131C199.759 144.81 202.7 141.869 202.7 138.241V92.6233C202.7 89.0096 199.759 86.0689 196.131 86.0689Z" fill="#272727"/>
<path d="M193.19 83.1282H147.382C143.754 83.1282 140.813 86.0689 140.813 89.6973V135.3C140.813 138.929 143.754 141.869 147.382 141.869H193.19C196.818 141.869 199.759 138.929 199.759 135.3V89.6826C199.759 86.0689 196.818 83.1282 193.19 83.1282Z" fill="white"/>
<path fill-rule="evenodd" clip-rule="evenodd" d="M128.537 133.851C128.598 133.74 128.722 133.681 128.846 133.703L137.434 135.239C137.593 135.268 137.699 135.42 137.67 135.579C137.642 135.738 137.49 135.844 137.331 135.815L129.603 134.433L135.534 140.829C135.634 140.937 135.638 141.101 135.545 141.214L129.128 148.984L138.252 145.828C138.334 145.8 138.424 145.809 138.498 145.854C138.572 145.898 138.623 145.973 138.637 146.058L139.994 154.481L144.456 146.388C144.507 146.296 144.603 146.238 144.709 146.237C144.814 146.235 144.912 146.291 144.965 146.382L148.403 152.278C148.484 152.417 148.437 152.597 148.298 152.678C148.158 152.759 147.979 152.712 147.898 152.573L144.719 147.122L140.096 155.507C140.036 155.617 139.913 155.676 139.79 155.654C139.667 155.633 139.571 155.536 139.551 155.413L138.114 146.495L128.334 149.878C128.21 149.921 128.073 149.876 127.998 149.768C127.923 149.661 127.929 149.516 128.013 149.415L134.931 141.039L128.58 134.19C128.494 134.098 128.477 133.961 128.537 133.851Z" fill="#231F20"/>
<path fill-rule="evenodd" clip-rule="evenodd" d="M45.9043 31.9744C45.9567 32.1273 45.8754 32.2937 45.7225 32.3462L34.1731 36.3108L45.8006 37.7336C45.9142 37.7475 46.0093 37.8264 46.044 37.9355C46.0786 38.0447 46.0464 38.164 45.9615 38.2409L32.3254 50.595L48.1581 46.9094C48.2448 46.8892 48.3359 46.9096 48.4058 46.9647C48.4756 47.0199 48.5166 47.1039 48.517 47.1929L48.5705 57.5957L55.4558 50.6244C55.5694 50.5094 55.7546 50.5083 55.8696 50.6218C55.9846 50.7354 55.9857 50.9207 55.8722 51.0357L48.4897 58.5103C48.4065 58.5946 48.2807 58.6204 48.171 58.5757C48.0614 58.531 47.9895 58.4246 47.9889 58.3062L47.9337 47.5625L31.359 51.4208C31.2291 51.451 31.0953 51.3897 31.0334 51.2716C30.9716 51.1535 30.9974 51.0085 31.0962 50.919L45.0944 38.2367L32.8401 36.7373C32.7048 36.7207 32.5988 36.6129 32.5846 36.4774C32.5704 36.3418 32.6517 36.2144 32.7806 36.1701L45.5325 31.7927C45.6854 31.7402 45.8518 31.8216 45.9043 31.9744Z" fill="#17151C"/>
<path d="M67.8146 87.6724C68.8738 88.3425 69.8277 89.1018 69.857 89.4602C69.8862 89.8172 69.2454 90.2356 68.3076 90.1449L66.7568 88.9833L67.8146 87.6724Z" fill="#CEA482"/>
<path d="M63.225 153.394C62.5388 150.084 62.1526 146.731 62.078 143.409L62.5549 142.708L76.0559 143.334L76.072 143.409C76.0413 143.871 76.0413 144.317 76.0266 144.75C75.9667 146.299 75.9667 147.463 76.0266 148.4L71.9579 156.076L63.225 153.394Z" fill="#CEA482"/>
<path d="M36.4747 153.394C36.2801 150.159 36.444 146.791 36.9517 143.409L37.1302 143.11L50.8257 142.544V143.394C50.6019 143.9 50.3795 144.377 50.2156 144.765C49.6787 145.926 49.2763 147.253 48.9925 148.506L45.253 155.942L36.4747 153.394Z" fill="#CEA482"/>
<path d="M70.5007 82.761H65.9682H58.7247H54.1044C54.0605 84.0207 49.171 90.2942 47.9947 97.9547C47.6217 100.383 47.4139 103.185 47.2047 106.136C46.757 112.411 46.2361 119.504 43.8221 124.481C43.5383 125.078 43.2559 125.644 42.9867 126.196C40.7219 130.816 38.9487 134.466 38.0095 138.193C37.5618 139.951 37.2194 141.665 36.9517 143.409L50.8111 143.423C50.8111 143.423 51.6904 141.501 52.182 140.414C54.1644 136.017 56.6238 130.547 58.5755 125.391C59.604 122.679 60.5433 119.325 61.3626 115.912C62.1965 118.805 62.9119 121.635 63.1957 124.184C63.4781 126.747 63.1065 130.041 62.7042 133.527C62.495 135.48 62.2565 137.492 62.1526 139.385C62.0634 140.845 62.0473 142.156 62.078 143.409H76.072C76.2198 140.234 76.5329 136.553 76.9659 131.441C77.0405 130.562 77.1151 129.638 77.2044 128.655C78.963 107.701 72.2856 87.747 71.0201 84.3937L70.5007 82.761Z" fill="#EE731B"/>
<path opacity="0.3" d="M63.1957 124.184C62.7627 120.265 62.7481 120.354 61.3625 115.912L63.7312 103.782C63.7312 103.782 65.6844 94.259 66.3398 99.4455C67.3537 107.701 63.2396 124.02 63.1957 124.184Z" fill="#0E0709"/>
<path d="M76.9206 132.038C73.598 131.621 71.0933 128.788 71.0933 125.451C71.0933 121.874 73.895 118.968 77.4575 118.819C77.5467 122.187 77.4721 125.495 77.2044 128.655C77.1444 129.385 77.0844 130.07 77.0244 130.741C77.0098 131.173 76.9352 132.038 76.9206 132.038Z" fill="#0E0709"/>
<path d="M56.1761 131.322C53.9698 130.19 52.6136 127.94 52.6136 125.451C52.6136 121.785 55.5952 118.819 59.2455 118.819C59.6932 118.819 60.1409 118.863 60.5871 118.952C59.9463 121.397 59.2616 123.558 58.5755 125.377C57.9054 127.164 57.1153 129.101 56.1761 131.322Z" fill="#0E0709"/>
<path fill-rule="evenodd" clip-rule="evenodd" d="M64.9235 97.1738C65.0833 97.198 65.1932 97.3472 65.169 97.5069C64.2582 103.518 63.0058 110.427 61.5414 116.4C61.5029 116.557 61.3445 116.653 61.1875 116.615C61.0306 116.576 60.9345 116.418 60.973 116.261C62.4318 110.31 63.6812 103.42 64.5904 97.4193C64.6146 97.2595 64.7638 97.1496 64.9235 97.1738Z" fill="#0E0709"/>
<path d="M103.09 84.0806C102.926 84.0806 102.777 84.0353 102.644 83.9753C102.285 83.7822 102.047 83.3945 102.047 83.0067C102.047 83.0067 100.929 83.3345 99.7821 83.3345C98.8428 83.3345 98.142 83.1267 97.7104 82.7244C97.7104 82.7244 97.6958 82.7097 97.6958 82.7244C97.5612 82.7844 96.0177 83.3988 94.3191 84.0045L92.4347 74.1246C96.5034 73.2556 100.244 73.0815 103.015 73.0815C108.486 73.0815 111.377 73.3799 111.808 74.0061C111.883 74.0954 111.898 74.2139 111.854 74.3338C111.451 75.5555 106.786 75.7793 104.811 75.8495C106.756 75.7793 107.665 76.3748 107.71 77.2248C107.74 77.731 107.457 78.2241 106.891 78.6995C106.891 78.6995 107.233 79.0726 107.188 79.5788C107.159 79.9826 106.906 80.3542 106.429 80.7127L105.906 81.0697C105.922 81.0697 106.563 81.9343 105.386 82.8882C104.328 83.7075 103.627 84.0806 103.09 84.0806Z" fill="#CEA482"/>
<path d="M81.8232 86.897C81.2731 86.897 80.7654 86.8677 80.3031 86.7931C78.9322 86.5693 77.3536 85.6154 75.6097 83.946C74.1934 82.5898 72.688 80.7566 71.3625 78.7742C71.3478 78.7449 71.3171 78.7596 71.3025 78.7903L70.9001 84.1099H54.1044L47.3832 62.5154L47.9947 61.8892C50.915 58.969 54.8652 58.5374 56.9661 58.5374C57.86 58.5374 58.4262 58.612 58.4262 58.612L67.5176 59.0582C67.5468 59.0582 71.124 59.2367 73.3288 61.443C77.8891 66.1525 82.8225 75.9432 82.8664 76.0471C82.9117 76.0324 87.3828 74.9147 92.6585 74.0661L94.6102 83.9007C91.5407 85.0345 85.8334 86.897 81.8232 86.897Z" fill="#232627"/>
<path fill-rule="evenodd" clip-rule="evenodd" d="M53.4987 84.085C53.4987 83.9234 53.6297 83.7924 53.7913 83.7924H70.9543C71.1159 83.7924 71.2469 83.9234 71.2469 84.085C71.2469 84.2466 71.1159 84.3776 70.9543 84.3776H53.7913C53.6297 84.3776 53.4987 84.2466 53.4987 84.085Z" fill="#0E0709"/>
<path opacity="0.3" d="M74.0896 82.3074C73.121 81.1897 72.1964 79.9665 71.3478 78.6849L71.8394 72.7684L74.0896 82.3074Z" fill="#F5F0EC"/>
<path opacity="0.3" d="M59.7678 84.0953H54.1044L51.882 76.9556L52.3092 76.3806L54.0971 73.8876L59.7678 84.0953Z" fill="#F5F0EC"/>
<path fill-rule="evenodd" clip-rule="evenodd" d="M82.994 75.7838C83.1394 75.8543 83.2002 76.0293 83.1296 76.1747L82.1465 78.2025C82.076 78.3479 81.901 78.4086 81.7555 78.3381C81.6101 78.2676 81.5494 78.0926 81.6199 77.9472L82.6031 75.9194C82.6736 75.774 82.8486 75.7133 82.994 75.7838Z" fill="#F5F0EC"/>
<path fill-rule="evenodd" clip-rule="evenodd" d="M100.104 73.0194C100.18 72.8765 100.357 72.8219 100.5 72.8974L100.363 73.1561L100.226 73.4148C100.083 73.3393 100.029 73.1623 100.104 73.0194ZM101.173 77.2525C101.181 77.2552 101.19 77.2579 101.199 77.2607C101.341 77.3043 101.544 77.365 101.787 77.4338C102.272 77.5712 102.919 77.7415 103.563 77.8712C104.201 77.9996 104.861 78.0935 105.361 78.0655C105.606 78.0518 105.854 78.0072 106.043 77.889C106.143 77.8268 106.232 77.74 106.29 77.6225C106.347 77.5043 106.362 77.376 106.346 77.2481L106.346 77.2454C106.313 77.0074 106.161 76.7757 105.986 76.5708C105.804 76.3569 105.56 76.1314 105.282 75.9042C104.727 75.449 104.009 74.9631 103.303 74.52C102.597 74.076 101.896 73.6706 101.373 73.3764C101.111 73.2292 100.893 73.1097 100.74 73.0268C100.664 72.9854 100.604 72.9532 100.563 72.9312C100.543 72.9202 100.527 72.9118 100.516 72.9062L100.5 72.8974C100.5 72.8973 100.5 72.8974 100.363 73.1561C100.226 73.4148 100.226 73.4148 100.226 73.4148L100.241 73.4229C100.252 73.4283 100.267 73.4365 100.287 73.4472C100.327 73.4686 100.386 73.5003 100.461 73.5411C100.612 73.6228 100.827 73.741 101.086 73.8865C101.604 74.1779 102.296 74.5783 102.992 75.0156C103.69 75.4539 104.384 75.9247 104.912 76.3568C105.176 76.5732 105.39 76.774 105.541 76.9509C105.699 77.1356 105.756 77.2588 105.765 77.3229C105.768 77.3399 105.767 77.3507 105.766 77.3566C105.765 77.3624 105.764 77.365 105.764 77.366C105.763 77.3667 105.758 77.377 105.733 77.3929C105.671 77.4315 105.544 77.4692 105.328 77.4812C104.908 77.5048 104.309 77.4244 103.679 77.2975C103.055 77.1719 102.423 77.0059 101.946 76.8708C101.708 76.8033 101.51 76.7438 101.371 76.7012C101.301 76.6799 101.247 76.6628 101.21 76.6511C101.191 76.6453 101.177 76.6408 101.168 76.6378L101.157 76.6344L101.154 76.6334C101.033 76.5943 100.901 76.6374 100.827 76.7403" fill="#191919"/>
<path fill-rule="evenodd" clip-rule="evenodd" d="M103.048 81.8772C103.181 81.786 103.215 81.6042 103.124 81.4708C103.033 81.3374 102.851 81.3031 102.717 81.3943L102.882 81.6359C102.717 81.3943 102.717 81.3943 102.717 81.3944L102.717 81.3947L102.716 81.3954L102.712 81.3975C102.71 81.3992 102.707 81.4015 102.703 81.4044C102.695 81.4101 102.683 81.4182 102.67 81.4285C102.642 81.4491 102.603 81.4786 102.557 81.5162C102.466 81.5908 102.345 81.699 102.224 81.8327C101.993 82.0867 101.71 82.4926 101.74 82.9671C101.751 83.1284 101.89 83.2507 102.051 83.2402C102.212 83.2298 102.335 83.0906 102.324 82.9293C102.31 82.7031 102.451 82.4528 102.657 82.2259C102.754 82.119 102.853 82.0305 102.929 81.9686C102.966 81.9379 102.997 81.9142 103.018 81.8986C103.029 81.8908 103.037 81.885 103.042 81.8815L103.047 81.8778L103.048 81.8772Z" fill="#191919"/>
<path fill-rule="evenodd" clip-rule="evenodd" d="M102.668 80.1845C102.828 80.2069 102.94 80.3549 102.917 80.5149C102.853 80.9759 102.939 81.2126 103.046 81.3338C103.152 81.4554 103.34 81.5307 103.637 81.5282C104.24 81.5232 105.073 81.1964 105.744 80.8027C105.883 80.7209 106.062 80.7676 106.144 80.9069C106.226 81.0463 106.179 81.2256 106.04 81.3074C105.34 81.7184 104.399 82.1071 103.642 82.1134C103.259 82.1166 102.871 82.0215 102.606 81.7198C102.341 81.4178 102.261 80.9784 102.338 80.4336C102.36 80.2735 102.508 80.162 102.668 80.1845Z" fill="#191919"/>
<path fill-rule="evenodd" clip-rule="evenodd" d="M103.721 77.9505C103.721 77.9506 103.721 77.9505 103.721 77.9505L103.721 77.9507L103.718 77.9527C103.715 77.9546 103.71 77.9576 103.703 77.9617C103.691 77.9699 103.672 77.9825 103.647 77.9992C103.598 78.0325 103.528 78.0818 103.445 78.1443C103.28 78.2702 103.073 78.4451 102.893 78.6469C102.711 78.852 102.575 79.0644 102.524 79.2642C102.477 79.4475 102.498 79.627 102.648 79.8141C102.77 79.9654 102.99 80.0438 103.358 80.0081C103.721 79.9729 104.16 79.8304 104.614 79.632C105.518 79.2371 106.402 78.6569 106.708 78.4444C106.841 78.3524 107.023 78.3854 107.115 78.5182C107.207 78.651 107.174 78.8333 107.042 78.9254C106.723 79.146 105.804 79.7509 104.849 80.1683C104.373 80.3761 103.868 80.5466 103.414 80.5906C102.965 80.6342 102.495 80.558 102.192 80.1804M103.567 77.7018C103.413 77.453 103.413 77.453 103.413 77.4531L103.412 77.4535L103.41 77.4546L103.405 77.458C103.4 77.4608 103.394 77.4649 103.386 77.4701C103.37 77.4805 103.347 77.4955 103.319 77.5147C103.262 77.5531 103.183 77.6087 103.091 77.6787C102.908 77.8176 102.67 78.018 102.456 78.2577C102.246 78.4941 102.041 78.7894 101.957 79.1193C101.869 79.4657 101.917 79.8379 102.192 80.1804M103.721 77.9505C103.721 77.9506 103.721 77.9505 103.721 77.9505C103.721 77.9505 103.721 77.9504 103.721 77.9504C103.858 77.8653 103.901 77.6851 103.816 77.5477C103.731 77.4103 103.55 77.3679 103.413 77.453L103.567 77.7018" fill="#191919"/>
<path d="M36.8317 157.716C36.6678 156.121 36.5493 154.719 36.4747 153.394H43.9553L43.5383 150.621C43.5237 150.532 43.5237 150.428 43.5237 150.339C43.5237 149.265 44.3883 148.4 45.4607 148.4H49.0232C48.5902 150.681 49.0818 151.918 49.4841 152.648C49.9025 153.394 51.1242 154.242 52.3019 155.078C53.2251 155.719 54.179 156.389 54.7013 156.969C54.9237 157.224 55.1183 157.552 55.2075 157.79L46.1952 158.732L36.8317 157.716Z" fill="#EA5A0F"/>
<path d="M37.1155 160.099C37.0117 159.294 36.9209 158.506 36.8317 157.73V157.7H55.2075C55.5645 158.446 55.6991 159.28 55.5952 160.084L37.1155 160.099Z" fill="#0E0709"/>
<path d="M64.2828 157.76C63.8804 156.314 63.5235 154.809 63.225 153.394H71.0933L70.6763 150.621C70.6617 150.532 70.6617 150.428 70.6617 150.339C70.6617 149.265 71.5263 148.4 72.5987 148.4H76.0266C76.1759 150.517 76.6075 151.455 77.5014 152.648C77.9783 153.288 78.9922 154.049 80.0646 154.869C81.0185 155.584 82.0032 156.329 82.5694 156.969C82.7932 157.224 82.9117 157.403 83.0317 157.626L83.0756 157.774L74.6704 159.237L64.2828 157.76Z" fill="#EA5A0F"/>
<path d="M64.9689 160.099C64.7158 159.294 64.4774 158.49 64.2682 157.716H83.0609C83.4179 158.46 83.5525 159.294 83.4487 160.099H64.9689Z" fill="#0E0709"/>
<path fill-rule="evenodd" clip-rule="evenodd" d="M50.0859 152.989C50.1825 153.119 50.1558 153.302 50.0262 153.399L48.3188 154.672C48.1893 154.768 48.0059 154.741 47.9094 154.612C47.8128 154.482 47.8395 154.299 47.9691 154.202L49.6764 152.929C49.806 152.833 49.9893 152.86 50.0859 152.989Z" fill="#0E0709"/>
<path fill-rule="evenodd" clip-rule="evenodd" d="M78.2141 153.034C78.3053 153.168 78.271 153.35 78.1376 153.441L76.3263 154.679C76.1929 154.77 76.0108 154.735 75.9197 154.602C75.8285 154.469 75.8627 154.287 75.9961 154.195L77.8074 152.958C77.9408 152.866 78.1229 152.901 78.2141 153.034Z" fill="#0E0709"/>
<path d="M63.8058 63.0977C59.2309 63.0977 58.0093 58.6705 57.9946 58.6266C58.0093 58.5066 58.9924 47.9859 59.2163 45.9581C59.664 41.8601 61.8249 41.7416 65.7136 41.7416C66.2945 41.7416 66.9806 40.5639 67.6361 40.6678C70.9455 41.1593 73.3434 41.5178 74.2827 43.9772C74.6704 44.9603 74.6104 46.3765 74.5665 47.8659C74.5519 48.4175 74.5212 48.9691 74.5212 49.5353C74.5212 49.5353 75.7136 50.2361 75.6843 50.8023C75.6389 51.4577 74.328 52.1131 74.328 52.1131C74.2534 53.9317 74.1788 55.8103 72.8679 57.1504C72.3456 57.6873 71.3625 58.0004 70.274 58.0004C69.5293 58.0004 68.7992 57.8512 68.1277 57.5835L67.9784 59.2221C67.9784 59.2674 66.9353 63.0977 63.8058 63.0977Z" fill="#CEA482"/>
<path opacity="0.3" d="M66.0414 56.3311C66.7714 57.8658 67.6361 58.5213 67.9199 58.7012C67.9638 58.7305 68.0238 58.7012 68.0384 58.6412L68.1277 57.6273C68.1277 57.5981 68.113 57.5673 68.0984 57.5527L66.1613 56.2272C66.0867 56.1818 65.9975 56.2565 66.0414 56.3311Z" fill="#191919"/>
<path fill-rule="evenodd" clip-rule="evenodd" d="M65.9946 56.1202C66.086 55.987 66.2682 55.953 66.4014 56.0444C66.6084 56.1863 66.8229 56.3363 67.0384 56.487C67.4683 56.7875 67.9019 57.0907 68.2858 57.3373C68.4218 57.4246 68.4612 57.6056 68.3739 57.7416C68.2865 57.8776 68.1055 57.917 67.9695 57.8297C67.5762 57.577 67.1251 57.2617 66.6893 56.9571C66.4765 56.8083 66.2674 56.6621 66.0704 56.527C65.9372 56.4356 65.9032 56.2535 65.9946 56.1202Z" fill="#191919"/>
<path fill-rule="evenodd" clip-rule="evenodd" d="M63.4233 50.3694C63.5306 50.2486 63.7156 50.2377 63.8364 50.345L65.178 51.5374C65.2988 51.6448 65.3096 51.8297 65.2023 51.9505C65.0949 52.0713 64.91 52.0822 64.7892 51.9749L63.4476 50.7825C63.3268 50.6751 63.3159 50.4902 63.4233 50.3694Z" fill="#191919"/>
<path fill-rule="evenodd" clip-rule="evenodd" d="M71.1004 51.8885C71.2495 51.8262 71.4209 51.8966 71.4832 52.0457C71.6977 52.559 72.1058 52.7409 72.5158 52.7912C72.6762 52.8109 72.7903 52.9569 72.7706 53.1173C72.751 53.2777 72.605 53.3918 72.4446 53.3721C71.9008 53.3054 71.2642 53.0396 70.9432 52.2713C70.8809 52.1222 70.9513 51.9508 71.1004 51.8885Z" fill="#191919"/>
<path d="M72.391 49.4914C72.6455 49.4914 72.8518 49.2836 72.8518 49.029C72.8518 48.7745 72.6455 48.5667 72.391 48.5667C72.1349 48.5667 71.9286 48.7745 71.9286 49.029C71.9286 49.2836 72.1349 49.4914 72.391 49.4914Z" fill="black"/>
<path d="M59.3947 55.6157C58.9778 55.6157 58.6501 55.5864 58.4555 55.5718C58.337 55.5557 58.2624 55.4664 58.277 55.3479C58.5608 51.92 59.0378 46.7043 59.187 45.3173C59.6332 41.2339 61.8395 39.1637 65.7283 39.1637C66.3106 39.1637 66.9514 39.2076 67.6068 39.3115C70.9148 39.8045 73.3741 41.4885 74.328 43.9464C74.5519 44.5126 74.5958 45.228 74.6265 45.825C74.6265 45.9288 74.5519 46.0181 74.4465 46.0327C74.3427 46.0488 74.2081 46.0634 74.0442 46.0634C73.418 46.0634 72.1964 45.8542 70.647 44.5126C70.4832 44.3795 70.2593 44.5287 70.3047 44.7218C70.5578 45.6465 70.5417 46.3166 70.2593 46.7189C70.0662 47.0013 69.7224 47.1505 69.2601 47.1505C68.71 47.1505 68.0838 46.9427 67.7107 46.7935C67.5615 46.7335 67.4122 46.8535 67.4283 47.0013C67.4722 47.5528 67.4868 48.6413 67.0699 49.4167C67.0099 49.5353 66.846 49.5499 66.7568 49.4753C66.2052 48.9983 64.5213 47.6274 63.1065 47.6274C62.5388 47.6274 62.0633 47.8513 61.7195 48.299C59.7825 50.7569 62.5388 53.5294 63.3142 54.2448C63.4181 54.334 63.4035 54.4979 63.285 54.5725C62.0473 55.4372 60.4979 55.6157 59.3947 55.6157Z" fill="#191919"/>
<path d="M60.4979 100.354L69.2601 85.1677L79.3199 90.9657L70.5417 106.151L60.4979 100.354Z" fill="#666D68"/>
<path d="M54.1878 73.772L50.3795 79.1765C50.4234 79.1926 54.6413 81.2789 57.8747 82.8136L53.7913 92.0688C49.5295 91.055 41.9436 88.7448 39.0526 84.6907C34.3138 78.0587 43.8353 65.8526 47.9947 61.8892" fill="#232627"/>
<path d="M67.9638 99.4455C66.1906 99.4455 57.1739 92.7989 57.0846 92.7389C57.07 92.7389 55.7137 92.5297 53.762 92.0688L57.8147 82.7844C59.187 83.4252 60.3633 83.9753 60.9602 84.2445C66.4144 86.5985 67.7999 87.6563 67.8146 87.6724L67.0699 89.0126C67.1152 89.0433 72.3003 92.6043 73.1796 93.9313C73.4926 94.3936 73.598 94.8252 73.5087 95.1983C73.4034 95.6592 73.0318 95.8684 73.0318 95.8684C73.3741 96.5092 73.4488 97.0008 73.2542 97.3431C72.9864 97.8054 72.3003 97.8054 72.2856 97.8054C72.2271 98.3278 71.8833 98.5809 71.2732 98.5809C69.7078 98.5809 66.8314 96.793 66.7714 96.7623C66.8314 96.8076 68.7685 98.5662 68.5154 99.207C68.4554 99.3709 68.2769 99.4455 67.9638 99.4455Z" fill="#CEA482"/>
<path fill-rule="evenodd" clip-rule="evenodd" d="M71.8651 72.4769C72.0261 72.4911 72.1451 72.6331 72.1309 72.794L71.6086 78.7252C71.5944 78.8862 71.4524 79.0052 71.2914 78.991C71.1305 78.9769 71.0114 78.8349 71.0256 78.6739L71.5479 72.7427C71.5621 72.5817 71.7041 72.4627 71.8651 72.4769Z" fill="#F5F0EC"/>
<path fill-rule="evenodd" clip-rule="evenodd" d="M54.2875 73.6323C54.4197 73.7254 54.4513 73.9079 54.3582 74.04L52.3319 76.9164C52.2389 77.0485 52.0563 77.0801 51.9242 76.9871C51.7921 76.894 51.7604 76.7115 51.8535 76.5793L53.8798 73.703C53.9729 73.5709 54.1554 73.5392 54.2875 73.6323Z" fill="#F5F0EC"/>
<path fill-rule="evenodd" clip-rule="evenodd" d="M50.6686 78.9838C50.6934 79.1435 50.5841 79.2931 50.4244 79.3179L47.3535 79.7948C47.1938 79.8196 47.0442 79.7103 47.0194 79.5506C46.9946 79.3909 47.104 79.2413 47.2636 79.2165L50.3346 78.7396C50.4943 78.7148 50.6438 78.8242 50.6686 78.9838Z" fill="#F5F0EC"/>
<path fill-rule="evenodd" clip-rule="evenodd" d="M66.2352 91.0796C66.3283 90.9475 66.5109 90.9158 66.643 91.0089L73.2003 95.6292C73.3324 95.7223 73.3641 95.9048 73.271 96.0369C73.1779 96.169 72.9954 96.2007 72.8632 96.1076L66.3059 91.4873C66.1738 91.3942 66.1421 91.2117 66.2352 91.0796Z" fill="#191919"/>
<path fill-rule="evenodd" clip-rule="evenodd" d="M65.0378 93.024C65.1268 92.8891 65.3083 92.8519 65.4432 92.9409L72.4468 97.5612C72.5817 97.6502 72.6189 97.8317 72.5299 97.9666C72.4409 98.1015 72.2594 98.1387 72.1245 98.0497L65.1209 93.4294C64.986 93.3404 64.9488 93.1589 65.0378 93.024Z" fill="#191919"/>
<path fill-rule="evenodd" clip-rule="evenodd" d="M63.9932 94.9647C64.081 94.829 64.2622 94.7902 64.3978 94.878L66.9304 96.5166C67.0661 96.6044 67.1049 96.7856 67.0171 96.9212C66.9293 97.0569 66.7481 97.0958 66.6125 97.008L64.0799 95.3694C63.9443 95.2816 63.9054 95.1004 63.9932 94.9647Z" fill="#191919"/>
<path d="M43.5909 115.296C43.9114 113.321 42.5697 111.46 40.5946 111.14C38.6195 110.819 36.7585 112.159 36.4381 114.136C36.1177 116.111 37.4593 117.972 39.4344 118.292C41.4096 118.613 43.2705 117.271 43.5909 115.296Z" fill="#EA5A0F"/>
<path d="M117.754 160.898C118.137 158.529 116.53 156.298 114.161 155.913C111.792 155.528 109.56 157.138 109.175 159.506C108.791 161.875 110.399 164.106 112.768 164.491C115.137 164.876 117.369 163.266 117.754 160.898Z" fill="#666D68"/>
<path d="M204.157 37.7504C204.451 35.945 203.225 34.2435 201.42 33.9509C199.614 33.6583 197.914 34.8843 197.62 36.6897C197.328 38.4936 198.554 40.1952 200.359 40.4878C202.164 40.7804 203.864 39.5544 204.157 37.7504Z" fill="#FD881C"/>
<path opacity="0.2" d="M184.314 40.7423L183.732 41.4973L174.067 54.1862L169.909 56.0472L170.588 51.5411L180.252 38.8521L180.833 38.0957C181.56 37.1359 182.937 36.9516 183.897 37.6787C184.857 38.4059 185.041 39.7826 184.314 40.7423Z" fill="#F5F0EC"/>
<path d="M172.138 55.1167L181.803 42.4278L178.323 39.7826L168.658 52.4716L167.979 56.9777L172.138 55.1167Z" fill="#666D68"/>
<path d="M168.687 52.4906L172.128 55.108C172.128 55.1167 172.128 55.1167 172.128 55.1167L167.979 56.9689L168.658 52.4906C168.658 52.4906 168.668 52.4803 168.687 52.4906Z" fill="#FD881C"/>
<path d="M170.296 55.9419L167.979 56.9777L168.358 54.4671L170.296 55.9419Z" fill="#0E0709"/>
<path d="M178.865 39.0745C179.593 38.1147 180.969 37.9304 181.929 38.6575C182.889 39.3846 183.073 40.7614 182.346 41.7211L181.764 42.4775L178.285 39.8309L178.865 39.0745Z" fill="#F5F0EC"/>
<path d="M180.849 43.7079L177.37 41.0613L178.333 39.7957L181.812 42.4424L180.849 43.7079Z" fill="#F5F0EC"/>
<path fill-rule="evenodd" clip-rule="evenodd" d="M178.617 41.6432C178.745 41.741 178.77 41.9246 178.673 42.0532L169.987 53.4811C169.889 53.6097 169.705 53.6348 169.577 53.537C169.448 53.4392 169.423 53.2556 169.521 53.127L178.207 41.6991C178.305 41.5705 178.488 41.5454 178.617 41.6432Z" fill="#F5F0EC"/>
<path fill-rule="evenodd" clip-rule="evenodd" d="M180.002 42.6997C180.131 42.7976 180.156 42.9812 180.058 43.1098L171.363 54.5288C171.265 54.6574 171.082 54.6823 170.953 54.5844C170.824 54.4865 170.8 54.3029 170.898 54.1743L179.592 42.7552C179.69 42.6267 179.874 42.6018 180.002 42.6997Z" fill="#F5F0EC"/>
<path fill-rule="evenodd" clip-rule="evenodd" d="M202.474 57.5309C202.53 57.6826 202.452 57.8507 202.3 57.9064L195.522 60.3936C195.37 60.4493 195.202 60.3714 195.147 60.2197C195.091 60.068 195.169 59.8999 195.32 59.8442L202.099 57.357C202.25 57.3013 202.419 57.3792 202.474 57.5309Z" fill="#231F20"/>
<path fill-rule="evenodd" clip-rule="evenodd" d="M197.048 50.4912C197.179 50.5865 197.207 50.7696 197.112 50.9001L192.206 57.6228C192.111 57.7533 191.928 57.7819 191.797 57.6867C191.667 57.5914 191.638 57.4084 191.734 57.2778L196.639 50.5551C196.734 50.4246 196.917 50.396 197.048 50.4912Z" fill="#231F20"/>
<path opacity="0.2" d="M217.718 97.3065L206.242 93.0608L210.164 104.648L211.664 101.258L214.327 103.99L216.975 101.426L214.312 98.6935L217.718 97.3065Z" fill="black"/>
<path d="M218.447 94.2663L206.97 90.0206L210.893 101.608L212.393 98.2166L215.055 100.95L217.703 98.3848L215.041 95.6533L218.447 94.2663Z" fill="#0E0709"/>
<path d="M148.38 167.882L156.674 166.863C157.147 164.64 157.657 161.994 158.095 158.896L157.79 158.484H144.046L143.925 158.896C143.73 160.282 143.391 161.629 142.94 162.94L148.38 167.882Z" fill="#846146"/>
<path d="M178.82 122.81L172.956 123.018C172.956 123.018 155.471 124.73 149.607 130.594C145.188 135.014 145.018 144.618 144.544 152.656H158.787C159.224 146.828 159.089 142.165 159.089 142.165L169.932 141.752C169.932 141.752 177.825 141.716 179.938 136.313C182.05 130.935 178.82 122.81 178.82 122.81Z" fill="#F5F0EC"/>
<path d="M143.912 158.885L154.816 158.896C154.841 158.642 154.768 158.108 154.791 157.853C154.658 155.752 154.598 154.077 154.415 152.267H144.569C144.398 154.611 144.228 156.87 143.912 158.885Z" fill="#0F0D07"/>
<path d="M149.271 166.566L149.195 164.688C149.18 163.793 148.744 163.073 147.907 162.965C147.834 162.952 147.749 162.952 147.676 162.952H142.929C142.674 163.644 142.333 164.312 141.934 164.92C140.124 167.555 136.894 168.611 134.867 171.088C134.611 171.416 134.284 171.938 134.15 172.35H155.302C155.678 171.04 156.188 169.072 156.674 166.886H149.271V166.713H149.272V166.571L149.271 166.566Z" fill="#666D68"/>
<path d="M134.235 172.132C133.871 173.031 133.774 173.771 133.653 174.997H154.427C154.427 174.997 154.804 174.026 155.35 172.132H134.235Z" fill="#52464D"/>
<path opacity="0.2" d="M156.554 134.518C148.589 134.518 150.8 146.114 151.272 158.887C151.6 167.459 146.756 166.257 143.15 171.078C142.895 171.418 142.689 171.758 142.519 172.134C142.155 173.032 142.02 174.017 142.13 175H152.936C152.936 175 153.313 174.029 153.859 172.134C154.235 170.823 154.697 169.063 155.183 166.877C155.656 164.655 156.166 162.008 156.604 158.911C156.627 158.656 156.675 158.413 156.7 158.159C156.968 156.095 157.174 154.128 157.319 152.294C157.757 146.466 157.599 142.216 157.599 142.216C157.599 142.216 168.49 134.518 156.554 134.518Z" fill="black"/>
<path d="M157.147 168.939L168.415 168.1L168.852 166.947C169.203 164.579 169.533 161.762 169.726 158.896V158.484L155.047 158.277L154.743 158.896C154.804 160.353 154.804 161.714 154.731 162.94L157.147 168.939Z" fill="#846146"/>
<path d="M160.899 166.857L161.227 164.683C161.348 163.857 160.778 163.067 159.94 162.959C159.866 162.946 159.781 162.946 159.71 162.946H154.731C154.706 163.541 154.646 164.1 154.561 164.623C154.112 167.778 149.814 168.605 147.786 171.094C147.531 171.421 147.227 172.065 147.057 172.441H167.917C168.184 171.069 168.561 168.981 168.852 166.892H160.895L160.899 166.857Z" fill="#666D68"/>
<path d="M190.903 122.81H177.863C177.863 122.81 162.115 124.875 156.383 130.594C152.68 134.297 153.566 144.278 154.283 152.886L169.995 152.705C170.043 146.245 169.436 142.057 169.436 142.057H185.184C185.184 142.057 190.988 141.729 193.101 136.324C195.213 130.935 190.903 122.81 190.903 122.81Z" fill="#F5F0EC"/>
<path opacity="0.2" d="M190.902 122.81H185.657C185.657 122.81 183.276 134.94 185.183 135.305C186.191 135.499 188.304 132.197 188.304 132.197C190.877 134.212 193.573 134.516 193.573 134.516C194.339 129.283 190.902 122.81 190.902 122.81Z" fill="black"/>
<path opacity="0.2" d="M169.448 142.057C169.448 142.057 179.562 142.057 176.466 142.057C172.836 141.157 171.258 137.442 168.598 137.442C169.168 140.272 169.448 142.057 169.448 142.057Z" fill="black"/>
<path fill-rule="evenodd" clip-rule="evenodd" d="M168.795 139.638C168.95 139.593 169.112 139.683 169.157 139.838L168.876 139.919C169.157 139.838 169.157 139.838 169.157 139.838L169.161 139.851C169.163 139.859 169.166 139.871 169.171 139.887C169.18 139.919 169.193 139.965 169.209 140.025C169.242 140.144 169.289 140.314 169.344 140.523C169.454 140.94 169.598 141.509 169.732 142.115C169.767 142.273 169.667 142.429 169.51 142.464C169.352 142.499 169.196 142.399 169.161 142.241C169.029 141.645 168.887 141.084 168.778 140.672C168.724 140.466 168.678 140.298 168.646 140.181C168.629 140.123 168.617 140.077 168.608 140.047C168.603 140.031 168.6 140.019 168.598 140.012L168.595 140" fill="black"/>
<path d="M147.179 172.132C146.815 173.031 146.681 174.014 146.79 174.997H167.37C167.37 174.997 167.626 173.929 167.977 172.132H147.179Z" fill="#52464D"/>
<path fill-rule="evenodd" clip-rule="evenodd" d="M140.348 166.335C140.455 166.215 140.64 166.205 140.761 166.312L142.287 167.676C142.407 167.783 142.418 167.968 142.31 168.089C142.202 168.209 142.017 168.22 141.897 168.112L140.371 166.749C140.25 166.641 140.24 166.456 140.348 166.335Z" fill="#383838"/>
<path fill-rule="evenodd" clip-rule="evenodd" d="M153.244 166.57C153.35 166.449 153.535 166.436 153.657 166.543L154.949 167.674C155.07 167.78 155.083 167.965 154.976 168.087C154.87 168.208 154.685 168.221 154.563 168.114L153.271 166.983C153.15 166.877 153.137 166.692 153.244 166.57Z" fill="#383838"/>
<path d="M154.756 158.885H169.739C169.752 158.63 169.764 158.387 169.789 158.133C169.934 155.983 169.97 154.016 169.982 152.267H154.21C154.405 154.574 154.671 156.809 154.756 158.885Z" fill="#0F0D07"/>
<path fill-rule="evenodd" clip-rule="evenodd" d="M162.855 126.654C162.919 126.802 162.85 126.974 162.702 127.038C160.453 128.006 158.127 129.262 156.59 130.8L156.59 130.801C154.824 132.566 154.115 135.727 153.962 139.601C153.816 143.309 154.179 147.585 154.531 151.736C154.546 151.901 154.56 152.066 154.573 152.231L154.573 152.231C154.768 154.538 154.95 156.778 155.035 158.861L154.743 158.873L155.035 158.861C155.035 158.861 155.035 158.861 155.035 158.861C155.097 160.324 155.097 161.693 155.023 162.93C155.023 162.929 155.023 162.928 155.023 162.927L154.731 162.915L155.023 162.933C155.023 162.932 155.023 162.931 155.023 162.93C154.998 163.536 154.937 164.104 154.851 164.636C154.851 164.635 154.851 164.634 154.851 164.633L154.561 164.592L154.85 164.639C154.85 164.638 154.85 164.637 154.851 164.636C154.605 166.352 153.312 167.41 151.927 168.322C151.62 168.525 151.315 168.716 151.012 168.906C150.606 169.16 150.203 169.412 149.802 169.687C149.118 170.157 148.496 170.656 148.015 171.245C148.016 171.244 148.016 171.243 148.017 171.242L147.786 171.063L148.013 171.248C148.014 171.247 148.014 171.246 148.015 171.245C147.777 171.552 147.581 171.884 147.421 172.24C147.354 172.387 147.181 172.452 147.034 172.386C146.886 172.319 146.821 172.146 146.887 171.999C147.066 171.604 147.285 171.231 147.555 170.883C147.556 170.882 147.558 170.88 147.559 170.878C148.092 170.224 148.767 169.688 149.471 169.205C149.872 168.93 150.302 168.66 150.723 168.396C151.027 168.205 151.325 168.018 151.605 167.834C152.987 166.923 154.067 165.99 154.272 164.551C154.272 164.549 154.272 164.547 154.273 164.545C154.356 164.034 154.414 163.486 154.439 162.903C154.439 162.901 154.439 162.9 154.439 162.898C154.511 161.684 154.512 160.335 154.45 158.885L154.45 158.885C154.366 156.816 154.185 154.588 153.99 152.28L154.282 152.256L153.99 152.28C153.99 152.28 153.99 152.28 153.99 152.28C153.976 152.11 153.962 151.94 153.947 151.77C153.596 147.632 153.23 143.324 153.378 139.578C153.531 135.695 154.238 132.324 156.176 130.387C156.176 130.387 156.176 130.387 156.176 130.387L156.383 130.593L156.176 130.387C157.793 128.768 160.204 127.476 162.47 126.501C162.619 126.437 162.791 126.505 162.855 126.654Z" fill="black"/>
<path d="M185.013 79.8773C181.516 79.1604 179.356 78.6147 177.667 80.4347C176.732 81.4676 176.089 83.3491 175.47 85.3286C175.47 85.3286 174.134 85.5349 173.976 86.0323C173.77 86.6526 174.729 87.6841 174.729 87.6841C174.122 89.3724 173.465 91.0842 174.231 92.7228C174.984 94.3629 177.048 95.1032 178.918 94.8354L178.384 96.9364L188.304 97.0095C189.117 93.5494 189.639 89.0681 189.992 87.1135C190.659 83.4105 189.057 80.7273 185.013 79.8773Z" fill="#846146"/>
<path opacity="0.2" d="M178.93 94.8354L178.517 96.4258L181.759 94.1317C180.156 94.6409 178.93 94.8354 178.93 94.8354Z" fill="black"/>
<path d="M185.316 78.6747C181.819 77.9578 179.356 78.6147 177.667 80.4347C177.291 80.8605 177.012 81.3096 176.836 81.7939C176.769 81.807 179.732 83.4369 182.069 82.205C182.318 82.0514 181.426 84.5078 184.021 84.7185C184.287 84.6966 182.166 88.0279 183.045 87.7572C183.045 87.7572 187.041 86.6029 187.587 88.6439C188.23 90.9145 184.552 92.8208 184.608 92.9086C186.324 94.812 188.457 95.011 188.738 95.0169C189.199 94.5063 190.464 88.2664 190.756 86.6161C191.412 82.8634 189.36 79.5247 185.316 78.6747Z" fill="black"/>
<path fill-rule="evenodd" clip-rule="evenodd" d="M181.47 94.241C181.517 94.3956 181.43 94.5591 181.276 94.6062C180.504 94.8415 179.711 94.9904 178.971 95.1234C178.812 95.152 178.66 95.0463 178.632 94.8872C178.603 94.7282 178.709 94.5761 178.868 94.5475C179.608 94.4143 180.37 94.2705 181.105 94.0464C181.259 93.9993 181.423 94.0864 181.47 94.241Z" fill="black"/>
<path fill-rule="evenodd" clip-rule="evenodd" d="M185.602 89.6556C185.66 89.8065 185.585 89.9757 185.434 90.0334L183.782 90.6655C183.631 90.7232 183.462 90.6477 183.404 90.4968C183.346 90.3458 183.422 90.1767 183.573 90.1189L185.225 89.4869C185.376 89.4291 185.545 89.5047 185.602 89.6556Z" fill="black"/>
<path fill-rule="evenodd" clip-rule="evenodd" d="M177.654 88.635C177.786 88.7286 177.816 88.9113 177.723 89.043C177.272 89.6776 176.528 89.8083 175.904 89.6698C175.746 89.6348 175.646 89.4785 175.681 89.3207C175.716 89.163 175.873 89.0635 176.031 89.0985C176.501 89.2028 176.971 89.0907 177.246 88.704C177.339 88.5723 177.522 88.5414 177.654 88.635Z" fill="black"/>
<path d="M177.546 86.4098C177.78 86.4098 177.97 86.2181 177.97 85.984C177.97 85.7499 177.78 85.5597 177.546 85.5597C177.312 85.5597 177.121 85.7499 177.121 85.984C177.121 86.2181 177.312 86.4098 177.546 86.4098Z" fill="black"/>
<path d="M158.216 101.235C158.168 101.246 158.106 101.235 158.07 101.187C157.414 100.19 150.772 90.0279 148.125 87.7324C146.632 86.4332 145.346 86.4581 143.815 86.0938C142.285 85.7178 139.893 83.8231 139.141 84.5751C138.522 85.1954 140.209 86.7741 140.816 87.3081C140.901 87.3812 140.853 87.5144 140.743 87.5378C138.545 87.8538 137.672 87.4778 135.195 87.1018C133.094 86.7741 132.645 87.0886 132.56 87.1984C132.535 87.2232 132.51 87.2349 132.475 87.2466C130.823 87.4778 131.211 88.3278 131.357 88.5707C131.382 88.6073 131.382 88.6555 131.357 88.7038C130.617 90.0645 133.58 91.0593 136.323 92.2985C138.935 93.488 142.88 93.8771 143.548 93.9254C143.609 93.9254 143.657 93.9737 143.657 94.022C143.888 95.1763 146.402 106.613 153.711 110.985C156.163 112.309 160.267 112.187 163.679 111.761C163.752 111.75 163.8 111.677 163.789 111.603L161.543 100.421C161.53 100.348 161.458 100.3 161.385 100.323C160.122 100.688 158.604 101.125 158.216 101.235Z" fill="#846146"/>
<path opacity="0.2" d="M145.174 93.9854L143.669 93.9254C143.669 93.9254 143.9 95.0915 144.422 96.8515L145.174 93.9854Z" fill="black"/>
<path d="M160.656 100.543L162.95 111.871C167.819 111.239 173.708 109.649 173.708 109.649L173.964 97.8244C169.799 98.2239 163.814 99.6679 160.656 100.543Z" fill="#232627"/>
<path opacity="0.2" d="M168.305 110.936C170.844 110.389 172.738 109.855 172.738 109.855L173.101 105.533L168.305 110.936Z" fill="black"/>
<path fill-rule="evenodd" clip-rule="evenodd" d="M158.411 101.174C158.458 101.329 158.37 101.492 158.216 101.538L156.237 102.134C156.083 102.18 155.92 102.093 155.873 101.938C155.826 101.783 155.914 101.62 156.069 101.573L158.047 100.978C158.202 100.931 158.365 101.019 158.411 101.174Z" fill="black"/>
<path fill-rule="evenodd" clip-rule="evenodd" d="M132.813 89.0838C132.252 88.9545 131.801 88.8931 131.469 88.9222C131.308 88.9363 131.166 88.8172 131.152 88.6562C131.138 88.4953 131.257 88.3533 131.418 88.3392C131.846 88.3017 132.373 88.3816 132.945 88.5136C133.522 88.6467 134.174 88.8401 134.859 89.0461C134.912 89.0621 134.966 89.0782 135.02 89.0944C136.337 89.4907 137.774 89.9231 139.129 90.1054C139.13 90.1051 139.131 90.1048 139.132 90.1045C139.174 90.0915 139.237 90.0729 139.316 90.05C139.475 90.0041 139.704 89.9409 139.986 89.8706C140.548 89.7303 141.321 89.5616 142.164 89.4489C143.006 89.3364 143.928 89.2784 144.782 89.3647C145.633 89.4505 146.449 89.6823 147.05 90.1782C147.175 90.281 147.193 90.4655 147.09 90.5901C146.987 90.7148 146.803 90.7324 146.678 90.6296C146.205 90.2389 145.52 90.0274 144.723 89.9469C143.931 89.867 143.059 89.9198 142.242 90.029C141.426 90.1379 140.675 90.3016 140.127 90.4384C139.854 90.5067 139.632 90.5681 139.478 90.6123C139.402 90.6344 139.342 90.6522 139.302 90.6643C139.282 90.6704 139.267 90.6751 139.257 90.6782L139.246 90.6817L139.244 90.6825L139.243 90.6827L139.243 90.6827C139.243 90.6827 139.243 90.6827 139.243 90.6827" fill="black"/>
<path fill-rule="evenodd" clip-rule="evenodd" d="M132.412 87.2349C132.412 87.0733 132.543 86.9423 132.705 86.9423C132.816 86.9423 132.983 86.9677 133.169 87.0023C133.362 87.0384 133.602 87.0896 133.871 87.1506C134.364 87.2622 134.967 87.4087 135.591 87.5604C135.649 87.5745 135.707 87.5887 135.766 87.6029C137.153 87.9399 138.576 88.2813 139.181 88.3394C139.341 88.3549 139.459 88.4978 139.444 88.6587C139.428 88.8196 139.285 88.9374 139.125 88.9219C138.467 88.8587 136.988 88.5021 135.628 88.1716C135.569 88.1575 135.511 88.1433 135.453 88.1293C134.828 87.9773 134.23 87.8318 133.742 87.7213C133.475 87.661 133.244 87.6117 133.061 87.5776C132.871 87.542 132.755 87.5275 132.705 87.5275C132.543 87.5275 132.412 87.3965 132.412 87.2349Z" fill="black"/>
<path fill-rule="evenodd" clip-rule="evenodd" d="M145.497 93.7893C145.532 93.9471 145.432 94.1032 145.274 94.138C144.739 94.256 144.185 94.267 143.642 94.2168C143.481 94.2019 143.363 94.0594 143.378 93.8985C143.393 93.7376 143.535 93.6192 143.696 93.6341C144.197 93.6804 144.688 93.6681 145.148 93.5665C145.306 93.5317 145.462 93.6314 145.497 93.7893Z" fill="black"/>
<path fill-rule="evenodd" clip-rule="evenodd" d="M142.805 87.1872C142.831 87.3466 142.723 87.4973 142.564 87.5236L141.095 87.7665C140.936 87.7929 140.785 87.685 140.759 87.5255C140.732 87.3661 140.84 87.2155 140.999 87.1891L142.468 86.9462C142.628 86.9199 142.778 87.0278 142.805 87.1872Z" fill="black"/>
<path d="M195.952 98.733C192.407 96.4623 188.122 98.0892 188.122 98.0892H178.128C177.133 97.6898 175.445 97.665 173.502 97.8595C173.502 97.8595 172.58 102.255 172.702 109.855C172.835 117.432 172.956 123.018 172.956 123.018H190.914L196.099 109.612L195.952 98.733Z" fill="#666D68"/>
<path opacity="0.2" d="M192.893 117.856L196.087 109.625L191.399 108.641L192.893 117.856Z" fill="#383838"/>
<path d="M178.08 98.0775L180.119 100.882L181.917 98.1024L183.531 100.882L188.109 98.0893L188.365 96.8266H178.396L178.08 98.0775Z" fill="#232627"/>
<path fill-rule="evenodd" clip-rule="evenodd" d="M181.989 107.719C181.989 107.557 182.12 107.426 182.282 107.426H186.58C186.742 107.426 186.873 107.557 186.873 107.719C186.873 107.881 186.742 108.012 186.58 108.012H182.282C182.12 108.012 181.989 107.881 181.989 107.719Z" fill="#383838"/>
<path d="M205.218 110.572L195.467 115.915C196.123 116.8 196.949 117.954 196.949 117.954C196.949 117.954 187.211 120.091 183.045 123.649C179.477 126.684 176.854 131.748 178.249 132.889C178.116 133.776 178.76 134.285 179.525 134.03C180.533 135.925 183.325 132.136 184.454 130.861C183.702 134.14 183.568 135.172 184.067 135.281C185.05 135.524 185.838 133.508 187.235 130.351C188.244 129.842 190.513 128.834 191.156 127.436C208.362 129.453 210.123 121.609 207.342 114.919C206.698 113.546 205.812 111.75 205.218 110.572Z" fill="#846146"/>
<path fill-rule="evenodd" clip-rule="evenodd" d="M200.188 116.797C200.344 116.755 200.504 116.847 200.546 117.003C200.589 117.159 200.496 117.32 200.34 117.362L200.264 117.08L200.188 116.797ZM199.251 117.654C198.612 117.824 197.783 118.043 197.023 118.238C196.866 118.278 196.707 118.184 196.667 118.027C196.627 117.871 196.721 117.711 196.877 117.671C197.635 117.477 198.462 117.258 199.101 117.088C199.42 117.003 199.692 116.931 199.884 116.879C199.98 116.853 200.056 116.833 200.108 116.819L200.188 116.797C200.188 116.797 200.188 116.797 200.264 117.08C200.34 117.362 200.34 117.362 200.34 117.362L200.26 117.384C200.208 117.398 200.132 117.418 200.035 117.444C199.843 117.496 199.571 117.569 199.251 117.654Z" fill="black"/>
<path fill-rule="evenodd" clip-rule="evenodd" d="M182.071 126.751C182.175 126.627 182.359 126.611 182.483 126.715C182.607 126.819 182.623 127.004 182.519 127.127L182.517 127.129L182.511 127.136C182.506 127.142 182.498 127.152 182.488 127.164C182.468 127.188 182.438 127.224 182.399 127.271C182.322 127.366 182.21 127.503 182.071 127.677C181.793 128.025 181.41 128.516 180.987 129.09C180.138 130.242 179.14 131.711 178.515 133.016C178.445 133.161 178.27 133.223 178.124 133.153C177.979 133.083 177.917 132.908 177.987 132.763C178.637 131.407 179.662 129.902 180.516 128.743C180.944 128.162 181.332 127.664 181.614 127.312C181.754 127.136 181.868 126.996 181.947 126.9C181.987 126.852 182.017 126.815 182.038 126.79C182.049 126.777 182.057 126.767 182.062 126.761L182.069 126.753L182.071 126.751C182.071 126.751 182.071 126.751 182.295 126.939L182.071 126.751Z" fill="black"/>
<path fill-rule="evenodd" clip-rule="evenodd" d="M183.713 128.008C183.82 127.887 184.005 127.875 184.126 127.983C184.247 128.09 184.258 128.275 184.151 128.396L183.932 128.202L183.713 128.008ZM182.538 130.337C181.645 131.465 180.596 132.887 179.941 134.097C179.864 134.239 179.686 134.291 179.544 134.215C179.402 134.138 179.349 133.96 179.426 133.818C180.107 132.562 181.182 131.107 182.079 129.973C182.529 129.405 182.937 128.914 183.233 128.565C183.38 128.391 183.5 128.252 183.583 128.156C183.625 128.108 183.657 128.071 183.679 128.046C183.69 128.034 183.698 128.024 183.704 128.018L183.713 128.008C183.713 128.008 183.713 128.008 183.932 128.202L184.151 128.396L184.143 128.405C184.138 128.411 184.13 128.42 184.119 128.432C184.098 128.456 184.066 128.493 184.025 128.54C183.944 128.634 183.825 128.771 183.679 128.943C183.387 129.289 182.983 129.774 182.538 130.337Z" fill="black"/>
<path fill-rule="evenodd" clip-rule="evenodd" d="M185.336 129.221C185.477 129.299 185.529 129.477 185.451 129.619L184.687 131.003C184.609 131.144 184.431 131.196 184.289 131.118C184.148 131.04 184.097 130.862 184.175 130.72L184.938 129.336C185.016 129.195 185.194 129.143 185.336 129.221Z" fill="black"/>
<path d="M195.952 98.733C195.104 98.1873 194.144 97.823 193.148 97.6533C188.122 101.902 191.655 110.233 193.173 112.636C193.562 113.255 194.836 115.04 195.819 116.376L205.509 111.118C200.457 101.563 195.952 98.733 195.952 98.733Z" fill="#232627"/>
</svg>