<svg width="250" height="200" viewBox="0 0 250 200" fill="none" xmlns="http://www.w3.org/2000/svg">
<path d="M86.8798 46.8133H188.408C192.475 46.8133 195.772 50.1103 195.772 54.1787V142.619C195.772 146.685 192.475 149.982 188.408 149.982H86.8798C82.8114 149.982 79.5144 146.685 79.5144 142.619V54.1787C79.5144 50.1103 82.8114 46.8133 86.8798 46.8133Z" fill="#F5F0EC"/>
<path fill-rule="evenodd" clip-rule="evenodd" d="M79.1715 124.56C79.1715 124.371 79.3251 124.217 79.5144 124.217H195.969C196.158 124.217 196.312 124.371 196.312 124.56C196.312 124.749 196.158 124.903 195.969 124.903H79.5144C79.3251 124.903 79.1715 124.749 79.1715 124.56Z" fill="#613945"/>
<path d="M86.8473 46.8133H188.375C192.442 46.8133 195.739 50.1103 195.739 54.1787V61.9042H79.4819V54.1787C79.4819 50.1103 82.7788 46.8133 86.8473 46.8133Z" fill="#666D68"/>
<path d="M88.7006 57.3111C90.1494 57.3111 91.3238 56.1367 91.3238 54.6879C91.3238 53.2375 90.1494 52.0631 88.7006 52.0631C87.2502 52.0631 86.0757 53.2375 86.0757 54.6879C86.0757 56.1367 87.2502 57.3111 88.7006 57.3111Z" fill="#F5F0EC"/>
<path d="M97.2285 57.3111C98.6789 57.3111 99.8534 56.1367 99.8534 54.6879C99.8534 53.2375 98.6789 52.0631 97.2285 52.0631C95.7797 52.0631 94.6053 53.2375 94.6053 54.6879C94.6053 56.1367 95.7797 57.3111 97.2285 57.3111Z" fill="#F5F0EC"/>
<path d="M105.758 57.3111C107.208 57.3111 108.383 56.1367 108.383 54.6879C108.383 53.2375 107.208 52.0631 105.758 52.0631C104.308 52.0631 103.133 53.2375 103.133 54.6879C103.133 56.1367 104.308 57.3111 105.758 57.3111Z" fill="#F5F0EC"/>
<path d="M108.812 73.0243H134.104C135.712 73.0243 137.022 74.3342 137.022 75.9424C137.022 77.5506 135.712 78.8604 134.104 78.8604H108.812C107.203 78.8604 105.893 77.5506 105.893 75.9424C105.893 74.3342 107.203 73.0243 108.812 73.0243Z" fill="#666D68"/>
<path d="M108.812 85.0857H123.597C125.205 85.0857 126.515 86.3956 126.515 88.0038C126.515 89.6119 125.205 90.9218 123.597 90.9218H108.812C107.203 90.9218 105.893 89.6119 105.893 88.0038C105.893 86.3956 107.203 85.0857 108.812 85.0857Z" fill="#FAFAFA"/>
<path d="M133.325 85.0857H137.994C139.602 85.0857 140.912 86.3956 140.912 88.0038C140.912 89.6119 139.602 90.9218 137.994 90.9218H133.325C131.717 90.9218 130.407 89.6119 130.407 88.0038C130.407 86.3956 131.717 85.0857 133.325 85.0857Z" fill="#FD881C"/>
<path d="M108.812 97.1488H112.444C114.053 97.1488 115.363 98.4587 115.363 100.067C115.363 101.675 114.053 102.985 112.444 102.985H108.812C107.203 102.985 105.893 101.675 105.893 100.067C105.893 98.4587 107.203 97.1488 108.812 97.1488Z" fill="#FAFAFA"/>
<path d="M122.171 97.1488H143.96C145.568 97.1488 146.878 98.4587 146.878 100.067C146.878 101.675 145.568 102.985 143.96 102.985H122.171C120.563 102.985 119.253 101.675 119.253 100.067C119.253 98.4587 120.563 97.1488 122.171 97.1488Z" fill="#FD881C"/>
<path d="M153.686 97.1488H172.364C173.972 97.1488 175.282 98.4587 175.282 100.067C175.282 101.675 173.972 102.985 172.364 102.985H153.686C152.078 102.985 150.768 101.675 150.768 100.067C150.768 98.4587 152.078 97.1488 153.686 97.1488Z" fill="#0E0709"/>
<path d="M108.812 109.21H120.485C122.094 109.21 123.403 110.52 123.403 112.128C123.403 113.736 122.094 115.046 120.485 115.046H108.812C107.203 115.046 105.893 113.736 105.893 112.128C105.893 110.52 107.203 109.21 108.812 109.21Z" fill="#EA5A0F"/>
<path d="M130.212 109.21H132.806C134.414 109.21 135.724 110.52 135.724 112.128C135.724 113.736 134.414 115.046 132.806 115.046H130.212C128.603 115.046 127.294 113.736 127.294 112.128C127.294 110.52 128.603 109.21 130.212 109.21Z" fill="#FAFAFA"/>
<path d="M142.534 109.21H157.967C159.576 109.21 160.885 110.52 160.885 112.128C160.885 113.736 159.576 115.046 157.967 115.046H142.534C140.925 115.046 139.616 113.736 139.616 112.128C139.616 110.52 140.925 109.21 142.534 109.21Z" fill="#666D68"/>
<path d="M120.746 128.862H154.977C158.341 128.862 161.072 131.593 161.072 134.957V138.704C161.072 142.068 158.341 144.799 154.977 144.799H120.746C117.382 144.799 114.651 142.068 114.651 138.704V134.957C114.651 131.593 117.382 128.862 120.746 128.862Z" fill="white"/>
<path fill-rule="evenodd" clip-rule="evenodd" d="M119.723 136.817C119.723 134.906 121.272 133.359 123.181 133.359C125.09 133.359 126.637 134.906 126.637 136.817C126.637 138.726 125.09 140.273 123.181 140.273C121.272 140.273 119.723 138.726 119.723 136.817ZM123.181 134.044C121.65 134.044 120.408 135.285 120.408 136.817C120.408 138.347 121.65 139.587 123.181 139.587C124.711 139.587 125.951 138.347 125.951 136.817C125.951 135.285 124.711 134.044 123.181 134.044Z" fill="#161616"/>
<path fill-rule="evenodd" clip-rule="evenodd" d="M125.141 138.777C125.275 138.644 125.492 138.644 125.626 138.777L126.576 139.727C126.71 139.861 126.71 140.078 126.576 140.212C126.442 140.346 126.225 140.346 126.091 140.212L125.141 139.262C125.007 139.128 125.007 138.911 125.141 138.777Z" fill="#161616"/>
<path fill-rule="evenodd" clip-rule="evenodd" d="M129.881 139.519C129.881 139.329 130.034 139.176 130.224 139.176H154.756C154.946 139.176 155.099 139.329 155.099 139.519C155.099 139.708 154.946 139.862 154.756 139.862H130.224C130.034 139.862 129.881 139.708 129.881 139.519Z" fill="#161616"/>
<path d="M63.0331 125.47L62.8668 99.7566L60.7066 99.7926C59.6728 100.568 59.4705 100.845 58.6938 101.528C52.4737 106.975 49.5745 112.032 48.5972 113.97C46.4558 118.252 46.7507 121.908 49.5007 124.862C52.4359 128.018 56.4238 129.144 56.4598 129.163L56.9227 129.311L63.0331 125.47Z" fill="#232627"/>
<path fill-rule="evenodd" clip-rule="evenodd" d="M56.6757 118.649C56.6813 118.838 56.5324 118.996 56.3431 119.001L53.2245 119.094C53.0352 119.1 52.8772 118.951 52.8716 118.761C52.866 118.572 53.0149 118.414 53.2042 118.409L56.3228 118.316C56.5121 118.31 56.6701 118.459 56.6757 118.649Z" fill="#F5F0EC"/>
<path d="M80.8655 93.9599C81.4192 94.2736 82.009 94.476 82.6382 94.5685C83.0068 94.6234 83.3754 94.6611 83.7629 94.6611C84.9631 94.6611 85.978 94.3097 86.6244 93.6822C87.972 92.3534 88.3046 90.5618 87.8434 87.1105C88.0286 86.9631 88.9509 86.1144 88.8961 85.4492C88.8584 84.9143 87.9548 84.5628 87.4011 84.3965L87.3445 84.0279L87.3256 83.8805C87.0684 82.2191 86.8644 80.779 86.4769 79.56C85.942 77.9175 84.5567 77.6226 82.9143 76.6248C81.7878 75.9424 80.9392 75.4984 79.6276 75.2772C79.0001 75.1658 78.484 75.0372 77.8565 75.0372C75.9912 75.0372 75.4203 75.7024 74.0161 76.5888C71.026 78.4524 70.822 82.0151 70.8409 84.4891L70.9335 84.9692L71.3398 85.7252C71.3398 86.2053 72.1336 86.7968 72.1336 87.6095C72.1525 89.2142 69.9185 91.0607 69.9373 92.7409C69.9373 93.4061 69.9545 94.0508 69.9733 94.5685V94.6045L80.8466 95.3623L80.8655 93.9599Z" fill="#C65A42"/>
<path opacity="0.3" d="M80.8655 93.9599L79.2401 93.2569C79.1664 93.2021 79.0738 93.1832 78.9641 93.1832C78.7978 93.1832 78.6315 93.257 78.5389 93.4061C78.4463 93.5347 78.4103 93.7199 78.4652 93.8673L78.9829 95.3983L80.8655 94.8823V93.9599Z" fill="#222020"/>
<path d="M62.1656 51.9242C62.5531 51.9242 62.9594 51.9431 63.3469 52.0168C66.6884 52.5895 69.1436 55.4886 69.1436 58.885C69.1436 60.3063 68.7184 61.6351 67.9794 62.7426C67.8868 62.8901 68.0171 63.0752 68.1835 63.0375C68.6446 62.9466 69.1247 62.8901 69.6048 62.8901C69.9922 62.8901 70.3986 62.9089 70.786 62.9826C74.1276 63.5553 76.5827 66.4528 76.5827 69.8491C76.5827 71.4933 76.0101 73.0072 75.0499 74.2073C74.9574 74.3359 75.0688 74.5022 75.2163 74.4645C76.0478 74.2434 76.9513 74.1336 77.8566 74.1336C78.4841 74.1336 79.1116 74.1885 79.7391 74.2982C81.0506 74.5211 82.3056 74.9823 83.4492 75.6647C84.9631 76.5699 85.8872 77.77 86.477 79.56L86.4221 79.5977C86.1272 79.7074 85.8306 79.7811 85.5169 79.764C85.0557 79.764 84.5756 79.6885 84.1144 79.56C84.0595 79.5411 84.003 79.5977 84.0218 79.6525C84.1693 80.04 84.3733 80.8715 83.9858 81.535C83.6155 82.1625 82.7857 82.5329 81.5307 82.6237C81.4381 82.6237 81.3815 82.7163 81.4004 82.8089C81.6404 83.733 81.5856 84.4891 81.2341 85.0617C80.9203 85.5229 80.4214 85.8555 79.8676 85.9653H79.8505H79.8316C79.8128 85.9653 78.244 85.0429 76.749 85.0429C75.7889 85.0429 75.0688 85.4115 74.6265 86.1504C73.8687 87.3694 74.515 88.753 75.1803 89.6943C75.6414 90.3218 76.1764 90.9133 76.785 91.431C76.8039 91.4482 76.8039 91.4859 76.7679 91.4859C76.2312 91.6522 72.3925 92.7958 71.1735 92.7958C70.4174 92.7958 69.8997 92.7598 69.8997 92.7598C69.8997 92.7598 69.8636 89.0496 69.8448 87.4792C69.8448 86.6682 69.8259 85.9653 69.8259 85.4852V84.544V84.4702C69.7899 82.514 69.7522 79.2102 71.2284 76.9934C71.321 76.8459 71.1924 76.6625 71.0261 76.6985C70.5649 76.7911 70.0848 76.8459 69.5859 76.8459C69.1984 76.8459 68.7921 76.8099 68.4046 76.7534C65.0631 76.1824 62.608 73.2832 62.608 69.8869C62.608 68.4278 63.0503 67.0803 63.827 65.9556C63.9007 65.8441 63.8081 65.6778 63.6607 65.7155C63.1806 65.8252 62.6628 65.8818 62.1468 65.8818C61.7593 65.8818 61.353 65.8441 60.9655 65.7892C57.624 65.2166 55.1688 62.3174 55.1688 58.921C55.2048 55.0446 58.3252 51.9242 62.1656 51.9242Z" fill="#2F2329"/>
<path d="M104.661 106.347C104.827 105.737 104.92 105.313 104.939 105.221C105.252 105.202 108.076 104.943 109.94 104.075C110.586 103.78 110.974 103.374 111.123 102.894C111.232 102.433 111.159 101.953 110.938 101.546C111.51 100.864 111.767 100.237 111.694 99.6451C111.639 99.2388 111.436 98.8513 111.104 98.5924C112.045 96.9688 110.919 96.0447 110.771 95.935C110.771 95.7498 110.697 94.3474 109.571 93.9599C109.331 93.8862 109.091 93.8485 108.851 93.8673C107.209 93.8673 104.254 94.9011 102.705 95.5835C102.888 95.0486 103.793 92.1494 103.018 91.4859C102.907 91.3933 102.759 91.3385 102.612 91.3385C101.153 91.3385 97.9966 95.7875 95.7626 99.9589C95.5226 100.42 95.2826 100.864 95.0237 101.38L95.2277 103.134L103.756 107.305L104.661 106.347Z" fill="#C65A42"/>
<path d="M93.3263 121.337C95.3751 121.354 97.3502 120.579 98.8452 119.213C101.78 116.056 103.886 109.152 104.661 106.347L95.0236 101.38L95.0065 101.418C94.379 102.654 93.8423 103.835 93.3623 104.888C93.1223 105.404 92.9011 105.903 92.6988 106.309C91.0375 103.134 89.0984 100.845 86.717 99.3314H86.6981L83.8744 99.1651L73.1297 107.878L84.0407 116.814L84.2258 116.961C87.3085 119.859 90.3911 121.337 93.3263 121.337Z" fill="#232627"/>
<path d="M79.427 125.009C79.4647 124.992 82.5834 123.883 81.6799 119.509C82.7686 118.918 83.6001 117.957 84.0424 116.814C84.0424 116.814 79.8334 112.032 82.0485 106.734C83.3772 103.429 84.9648 100.938 86.6638 99.3674C86.6827 99.3502 86.6827 99.3125 86.6638 99.3125C86.2215 99.0913 82.8423 97.3751 80.9598 96.9499L80.8483 94.8823L69.9391 93.6633L69.6065 96.211C69.1624 96.2487 64.4185 96.7648 60.5797 99.904C60.542 99.9211 57.6257 102.174 58.1606 106.752C57.9017 107.011 54.0081 110.887 56.3141 117.109C56.1667 117.404 54.0441 121.594 57.1645 125.415L57.2742 125.546L79.427 125.009Z" fill="#F5F0EC"/>
<path opacity="0.3" d="M79.4253 125.009C79.463 124.992 82.5817 123.883 81.6781 119.509C82.7668 118.918 83.5966 117.958 84.0407 116.814C84.0407 116.814 82.7291 115.3 82.0279 113.268L81.8444 113.325C81.8444 113.38 82.0845 117.976 77.0079 118.715H76.9701V118.751C76.9701 124.567 69.9545 125.157 69.8808 125.157V125.23L79.4253 125.009Z" fill="#0E0709"/>
<path d="M77.5617 174.981C82.4531 174.981 86.4581 172.25 88.2686 167.653C90.1134 162.983 88.9698 155.746 88.1383 151.851C86.9022 146.166 84.8345 140.553 82.8594 137.544C80.274 133.612 71.0809 128.536 64.8419 128.536C61.9616 128.536 60.134 129.662 59.5613 131.804C57.6051 139.076 70.2871 154.805 71.561 156.355C68.4595 154.971 65.358 153.734 62.4056 152.737L62.1656 152.811L59.5442 168.483L59.7276 168.78C61.0203 169.315 62.3319 169.869 63.6418 170.422C67.1856 171.917 70.8598 173.469 73.6835 174.391C74.9402 174.779 76.2501 174.981 77.5617 174.981Z" fill="#EE731B"/>
<path opacity="0.3" d="M87.7337 150.152C86.4787 144.985 84.6339 140.258 82.8611 137.563C80.2757 133.631 71.0827 128.555 64.8437 128.555C61.9633 128.555 60.1357 129.679 59.5631 131.821C58.4932 135.809 61.8536 142.307 64.8625 147.051C67.0399 148.234 68.8315 148.768 71.1015 149.47C73.5944 150.19 76.0495 151.038 78.4669 152.017C83.8213 154.195 85.7586 157.149 88.4178 161.229L88.4915 161.339L87.7337 150.152Z" fill="black"/>
<path d="M101.227 154.546L101.671 154.178C102.077 152.312 102.538 150.337 102.999 148.398C103.922 144.448 104.789 140.719 105.196 137.931C105.583 135.236 105.048 132.615 103.72 130.511C102.168 128.092 99.5653 126.413 96.1689 125.637C93.1052 124.954 88.0835 124.807 84.4093 124.807C81.1244 124.807 78.5389 124.917 78.5201 124.917L57.1628 125.415C55.63 131.545 56.1838 136.493 58.8053 140.11C61.0941 143.248 65.0083 145.225 69.5311 145.519C70.1397 145.556 70.7861 145.574 71.4513 145.574C78.6315 145.574 87.0496 143.248 87.8434 143.008C86.9022 146.682 86.1444 150.43 85.6095 154.178L86.4581 155.561L101.227 154.546Z" fill="#EE731B"/>
<path fill-rule="evenodd" clip-rule="evenodd" d="M96.0702 140.357C96.1281 140.537 96.029 140.73 95.8487 140.788L87.9844 143.317C87.9785 143.319 87.9726 143.321 87.9667 143.322L86.2145 143.783L86.2107 143.784C82.9035 144.615 75.4935 146.234 69.4915 145.843C67.1269 145.711 64.7557 144.955 62.6592 143.926C62.4892 143.843 62.419 143.637 62.5024 143.467C62.5859 143.297 62.7914 143.227 62.9614 143.31C64.9996 144.311 67.281 145.033 69.5312 145.158L69.5345 145.158C75.4193 145.542 82.7374 143.949 86.0418 143.12C86.0425 143.12 86.0431 143.119 86.0437 143.119L87.7832 142.661L95.6388 140.135C95.8191 140.077 96.0122 140.177 96.0702 140.357Z" fill="black"/>
<path d="M41.3793 172.065C42.7628 171.492 43.7967 170.441 44.9231 169.351C46.3633 167.929 47.8394 166.472 50.1471 165.936C50.3134 165.9 50.4797 165.881 50.646 165.881C52.4359 165.881 56.2027 167.34 59.6728 168.761L59.7276 168.78L62.4057 152.737C54.411 150.042 48.6332 149.358 45.182 149.248L42.948 151.758L40.2717 171.271L41.3793 172.065Z" fill="#F5F0EC"/>
<path d="M108.649 172.084C107.983 170.644 106.821 169.795 105.473 168.816C103.96 167.708 102.26 166.472 100.765 164.072C99.9716 162.779 100.839 158.128 101.671 154.214V154.178H85.6094C85.6094 154.178 84.8156 168.502 85.2957 172.103L90.0396 174.004L107.929 173.063L108.649 172.084Z" fill="#F5F0EC"/>
<path fill-rule="evenodd" clip-rule="evenodd" d="M92.6374 106.046C92.8237 106.012 93.0022 106.135 93.0362 106.322L93.9774 111.491C94.0113 111.677 93.8878 111.856 93.7015 111.89C93.5152 111.923 93.3366 111.8 93.3027 111.614L92.3615 106.444C92.3275 106.258 92.4511 106.08 92.6374 106.046Z" fill="#F5F0EC"/>
<path fill-rule="evenodd" clip-rule="evenodd" d="M56.0087 117.058C56.0266 116.869 56.194 116.731 56.3825 116.749L81.6728 119.149C81.8613 119.167 81.9997 119.334 81.9818 119.523C81.9639 119.711 81.7965 119.849 81.608 119.832L56.3177 117.431C56.1292 117.413 55.9908 117.246 56.0087 117.058Z" fill="#0E0709"/>
<path fill-rule="evenodd" clip-rule="evenodd" d="M57.8538 106.744C57.8582 106.554 58.0153 106.404 58.2046 106.409L81.8336 106.963C82.0229 106.967 82.1728 107.124 82.1684 107.313C82.1639 107.503 82.0069 107.653 81.8176 107.648L58.1886 107.094C57.9992 107.09 57.8494 106.933 57.8538 106.744Z" fill="#0E0709"/>
<path fill-rule="evenodd" clip-rule="evenodd" d="M80.0647 124.872C80.0692 125.062 79.9193 125.219 79.73 125.223L57.1726 125.758C56.9833 125.763 56.8262 125.613 56.8217 125.424C56.8172 125.234 56.967 125.077 57.1563 125.073L79.7138 124.538C79.9031 124.533 80.0602 124.683 80.0647 124.872Z" fill="#0E0709"/>
<path fill-rule="evenodd" clip-rule="evenodd" d="M111.069 95.8484C111.117 96.0316 111.007 96.2189 110.824 96.2668L107.573 97.1154C107.39 97.1632 107.202 97.0535 107.154 96.8703C107.107 96.687 107.216 96.4997 107.4 96.4519L110.65 95.6032C110.834 95.5554 111.021 95.6651 111.069 95.8484Z" fill="#222020"/>
<path fill-rule="evenodd" clip-rule="evenodd" d="M111.397 98.504C111.446 98.687 111.337 98.8749 111.154 98.9237L108.386 99.6627C108.203 99.7115 108.015 99.6028 107.966 99.4198C107.917 99.2368 108.026 99.0489 108.209 99.0001L110.978 98.2611C111.161 98.2123 111.349 98.321 111.397 98.504Z" fill="#222020"/>
<path fill-rule="evenodd" clip-rule="evenodd" d="M111.232 101.461C111.279 101.645 111.168 101.832 110.985 101.879L108.677 102.47C108.494 102.517 108.307 102.407 108.26 102.223C108.213 102.04 108.323 101.853 108.507 101.806L110.815 101.214C110.998 101.167 111.185 101.278 111.232 101.461Z" fill="#222020"/>
<path fill-rule="evenodd" clip-rule="evenodd" d="M102.947 95.5058C103.02 95.6805 102.938 95.8814 102.763 95.9546L101.045 96.6747C100.871 96.7479 100.67 96.6657 100.597 96.491C100.523 96.3164 100.606 96.1154 100.78 96.0422L102.498 95.3221C102.673 95.2489 102.874 95.3312 102.947 95.5058Z" fill="#222020"/>
<path fill-rule="evenodd" clip-rule="evenodd" d="M71.3289 156.104C71.4674 155.975 71.6844 155.983 71.8135 156.121L77.665 162.398C77.7942 162.536 77.7866 162.753 77.648 162.883C77.5095 163.012 77.2925 163.004 77.1634 162.866L71.3119 156.589C71.1827 156.45 71.1903 156.233 71.3289 156.104Z" fill="black"/>
<path fill-rule="evenodd" clip-rule="evenodd" d="M78.9435 92.8449C79.0386 92.6811 79.2484 92.6253 79.4122 92.7203L81.0375 93.6633C81.2014 93.7583 81.2571 93.9682 81.1621 94.132C81.067 94.2958 80.8572 94.3515 80.6934 94.2565L79.0681 93.3135C78.9043 93.2185 78.8485 93.0087 78.9435 92.8449Z" fill="#222020"/>
<path fill-rule="evenodd" clip-rule="evenodd" d="M76.8796 87.6335C76.978 87.4717 77.1889 87.4204 77.3507 87.5188L78.7172 88.3504C78.879 88.4488 78.9303 88.6598 78.8318 88.8215C78.7334 88.9833 78.5224 89.0347 78.3607 88.9362L76.9942 88.1047C76.8324 88.0062 76.7811 87.7953 76.8796 87.6335Z" fill="#222020"/>
<path fill-rule="evenodd" clip-rule="evenodd" d="M84.4019 87.6395C84.5586 87.5331 84.7719 87.5739 84.8782 87.7306C85.2044 88.2112 85.7434 88.4994 86.3012 88.484C86.4905 88.4787 86.6482 88.6279 86.6534 88.8173C86.6587 89.0066 86.5095 89.1643 86.3201 89.1695C85.5132 89.1918 84.7595 88.777 84.3108 88.1157C84.2044 87.9591 84.2452 87.7458 84.4019 87.6395Z" fill="#222020"/>
<path d="M85.4243 84.9692C85.1705 84.9692 84.9631 84.7617 84.9631 84.508C84.9631 84.2525 85.1705 84.0468 85.4243 84.0468C85.6797 84.0468 85.8872 84.2525 85.8872 84.508C85.8872 84.7617 85.6797 84.9692 85.4243 84.9692Z" fill="#231F20"/>
<path fill-rule="evenodd" clip-rule="evenodd" d="M54.579 162.51C54.7684 162.51 54.9219 162.664 54.9219 162.853V166.748C54.9219 166.938 54.7684 167.091 54.579 167.091C54.3897 167.091 54.2361 166.938 54.2361 166.748V162.853C54.2361 162.664 54.3897 162.51 54.579 162.51Z" fill="#0E0709"/>
<path fill-rule="evenodd" clip-rule="evenodd" d="M50.5659 161.981C50.7523 161.947 50.9307 162.07 50.9645 162.257L51.6109 165.819C51.6447 166.006 51.521 166.184 51.3347 166.218C51.1484 166.252 50.9699 166.128 50.9361 165.942L50.2897 162.379C50.2559 162.193 50.3796 162.014 50.5659 161.981Z" fill="#0E0709"/>
<path fill-rule="evenodd" clip-rule="evenodd" d="M93.6621 153.857C93.8486 153.89 93.973 154.068 93.94 154.255C93.2266 158.283 93.1434 162.734 93.2402 166.185C93.2886 167.909 93.3817 169.38 93.4627 170.42C93.5032 170.94 93.5407 171.352 93.568 171.633C93.5816 171.774 93.5927 171.882 93.6004 171.955C93.6042 171.991 93.6072 172.019 93.6092 172.037L93.6114 172.057L93.6122 172.064C93.6122 172.064 93.6122 172.064 93.4334 172.084L93.6122 172.064C93.6335 172.252 93.4982 172.422 93.31 172.443C93.1218 172.465 92.952 172.329 92.9307 172.141L93.2714 172.103C92.9307 172.141 92.9307 172.141 92.9307 172.141L92.9299 172.133L92.9274 172.111C92.9253 172.092 92.9223 172.064 92.9184 172.027C92.9105 171.952 92.8992 171.842 92.8854 171.699C92.8577 171.414 92.8199 170.998 92.779 170.473C92.6973 169.425 92.6034 167.942 92.5547 166.204C92.4574 162.733 92.5396 158.23 93.2647 154.135C93.2977 153.948 93.4757 153.824 93.6621 153.857Z" fill="#0E0709"/>
<path fill-rule="evenodd" clip-rule="evenodd" d="M100.813 161.028C100.822 161.217 100.676 161.378 100.487 161.387L96.979 161.553C96.7898 161.562 96.6292 161.416 96.6202 161.227C96.6112 161.038 96.7573 160.877 96.9465 160.868L100.454 160.702C100.643 160.693 100.804 160.839 100.813 161.028Z" fill="#0E0709"/>
<path fill-rule="evenodd" clip-rule="evenodd" d="M101.057 163.814C101.138 163.985 101.064 164.19 100.893 164.271L97.6081 165.822C97.4369 165.903 97.2325 165.83 97.1516 165.659C97.0707 165.487 97.144 165.283 97.3152 165.202L100.6 163.65C100.771 163.57 100.976 163.643 101.057 163.814Z" fill="#0E0709"/>
<path d="M109.238 175V174.964C109.238 173.966 109.055 172.989 108.649 172.084L85.2957 172.103C85.4071 173.063 85.5906 174.023 85.8306 174.964L109.238 175Z" fill="#232627"/>
<path d="M39.1264 172.509C39.9014 172.509 40.6592 172.36 41.3792 172.065L45.182 149.248C44.8116 149.23 44.4979 149.248 44.1481 149.248C43.428 149.23 42.708 149.267 41.9879 149.358L38 172.416C38.3515 172.471 38.7389 172.49 39.1264 172.509Z" fill="#232627"/>
<path fill-rule="evenodd" clip-rule="evenodd" d="M86.9736 146.715C87.1588 146.755 87.277 146.937 87.2375 147.122C86.7034 149.63 86.2425 152.057 85.9492 154.224C85.9238 154.411 85.7511 154.543 85.5635 154.517C85.3758 154.492 85.2443 154.319 85.2696 154.132C85.5662 151.94 86.0311 149.495 86.5668 146.979C86.6062 146.794 86.7884 146.676 86.9736 146.715Z" fill="black"/>
<path fill-rule="evenodd" clip-rule="evenodd" d="M43.6408 156.456C43.6468 156.266 43.805 156.118 43.9943 156.124L43.9835 156.466C43.9943 156.124 43.9944 156.124 43.9945 156.124L44.0023 156.124L44.0247 156.125C44.0443 156.125 44.0732 156.127 44.1112 156.128C44.187 156.131 44.2988 156.136 44.4434 156.143C44.7325 156.158 45.1528 156.182 45.6797 156.221C46.7333 156.298 48.2137 156.432 49.9225 156.662C53.335 157.12 57.6799 157.961 61.3578 159.491C61.5327 159.564 61.6154 159.765 61.5426 159.94C61.4699 160.115 61.2691 160.197 61.0943 160.125C57.4977 158.628 53.2213 157.797 49.8312 157.342C48.1387 157.114 46.6724 156.981 45.6297 156.905C45.1084 156.867 44.6932 156.843 44.4087 156.828C44.2665 156.821 44.157 156.816 44.0833 156.813C44.0465 156.812 44.0186 156.811 44 156.81L43.9792 156.809L43.9728 156.809C43.9727 156.809 43.9727 156.809 43.9736 156.783L43.9728 156.809C43.7835 156.803 43.6348 156.645 43.6408 156.456Z" fill="#0E0709"/>
<path d="M184.727 25H204.816C208.541 25 211.555 28.0141 211.555 31.7396V51.8282C211.555 57.1757 209.981 62.1442 207.3 66.3173C202.53 73.7376 193.521 78.6547 184.727 78.6547C178.203 78.6547 172.175 76.2699 167.488 72.3283C161.642 67.4111 157.899 60.0577 157.899 51.8282C157.899 37.0065 169.905 25 184.727 25Z" fill="#EE731B"/>
<path fill-rule="evenodd" clip-rule="evenodd" d="M199.754 30.5868C199.888 30.4529 200.105 30.4529 200.239 30.5868L205.968 36.3166C206.102 36.4505 206.102 36.6676 205.968 36.8015C205.835 36.9354 205.617 36.9354 205.484 36.8015L199.754 31.0717C199.62 30.9378 199.62 30.7207 199.754 30.5868Z" fill="#FAFAFA"/>
<path fill-rule="evenodd" clip-rule="evenodd" d="M205.968 30.5868C206.102 30.7207 206.102 30.9378 205.968 31.0717L200.239 36.8015C200.105 36.9354 199.888 36.9354 199.754 36.8015C199.62 36.6676 199.62 36.4505 199.754 36.3166L205.484 30.5868C205.617 30.4529 205.835 30.4529 205.968 30.5868Z" fill="#FAFAFA"/>
<path d="M184.273 53.6439L184.257 52.7249C183.805 52.8535 183.417 52.8689 182.966 52.8689C181.466 52.8689 180.208 52.2243 179.498 51.0961C178.594 49.644 178.982 47.9981 179.369 46.4002C179.402 46.2562 179.433 46.1104 179.465 45.9647C179.594 45.2549 179.692 44.5451 179.74 43.8353C179.901 42.0454 180.112 39.82 181.046 38.5444C182.514 36.5762 184.369 37.9152 187.482 37.9152C187.726 37.9152 188.741 37.7215 188.982 37.7386C192.564 37.9324 194.469 38.8359 194.356 42.2717C194.29 44.3359 195.016 47.2403 194.693 52.322L194.565 53.8856L190.339 55.3532L184.273 53.6439Z" fill="#F9B298"/>
<path d="M190.291 49.8051L190.258 49.7726L190.291 49.7571C190.321 49.74 193.742 47.6912 193.113 45.8035C192.855 45.0132 192.194 44.6257 191.161 44.6257C190.435 44.6583 189.79 44.7389 189.032 45.0457L189 45.0629L188.982 44.9652C188.758 43.8525 188.934 43.0947 189.257 42.2546C189.306 42.1431 189.209 42.0128 189.08 42.03C188.838 42.0454 188.597 42.0608 188.355 42.078C186.87 42.078 186.289 41.5293 186.063 41.0784C185.821 40.6104 185.871 40.0137 186.16 39.4325C186.226 39.3039 186.095 39.1411 185.951 39.1908C184.676 39.5765 183.563 39.7874 182.644 39.7874C181.144 39.7874 180.643 39.2714 180.643 39.2714C180.739 39.0451 180.917 38.7553 181.063 38.5616C182.531 36.5933 185.063 35.5115 188.177 35.5115C188.418 35.5115 188.66 35.5115 188.902 35.5287C192.483 35.7224 195.323 38.6576 195.209 42.0934C195.179 43.981 194.968 47.4494 194.678 52.3049C194.678 52.2894 192.08 51.7236 190.291 49.8051Z" fill="black"/>
<path fill-rule="evenodd" clip-rule="evenodd" d="M186.985 51.4173C187.083 51.5792 187.032 51.7901 186.87 51.8883C186.152 52.3237 185.145 52.7682 184.374 53.0473C184.196 53.1118 183.999 53.0197 183.935 52.8416C183.87 52.6635 183.962 52.4669 184.141 52.4025C184.885 52.133 185.847 51.7065 186.514 51.3019C186.676 51.2037 186.887 51.2553 186.985 51.4173Z" fill="black"/>
<path fill-rule="evenodd" clip-rule="evenodd" d="M190.994 46.8372C191.065 47.0127 190.981 47.2127 190.805 47.2838L189.531 47.7998C189.356 47.8709 189.156 47.7863 189.085 47.6108C189.014 47.4352 189.098 47.2353 189.274 47.1642L190.548 46.6482C190.723 46.577 190.923 46.6617 190.994 46.8372Z" fill="black"/>
<path fill-rule="evenodd" clip-rule="evenodd" d="M182.862 45.1022C183.045 45.1517 183.153 45.34 183.104 45.5228L183.008 45.8777C183.006 45.8818 183.005 45.886 183.004 45.8901C182.981 45.9636 182.999 46.0368 183.066 46.0965C183.073 46.1028 183.08 46.1095 183.087 46.1164L183.118 46.149C183.248 46.2865 183.242 46.5035 183.104 46.6337C182.967 46.7639 182.75 46.758 182.62 46.6206L182.597 46.5972C182.352 46.3703 182.245 46.0303 182.347 45.693L182.442 45.3437C182.491 45.1609 182.679 45.0528 182.862 45.1022Z" fill="black"/>
<path fill-rule="evenodd" clip-rule="evenodd" d="M184.071 47.3632C184.217 47.4836 184.238 47.6998 184.117 47.8459C183.827 48.1978 183.441 48.3597 183.101 48.4099C182.931 48.4351 182.766 48.4334 182.621 48.411C182.483 48.3896 182.335 48.3451 182.219 48.262C182.064 48.1521 182.028 47.938 182.138 47.7837C182.248 47.6295 182.462 47.5935 182.617 47.7033C182.616 47.703 182.616 47.7031 182.617 47.7036C182.624 47.7066 182.657 47.7225 182.726 47.7332C182.801 47.7448 182.897 47.7469 183.001 47.7315C183.209 47.7007 183.427 47.6046 183.588 47.4096C183.709 47.2635 183.925 47.2427 184.071 47.3632Z" fill="black"/>
<path d="M184.967 45.1589C185.199 45.1589 185.385 44.972 185.385 44.7389C185.385 44.5091 185.199 44.3205 184.967 44.3205C184.734 44.3205 184.547 44.5091 184.547 44.7389C184.547 44.972 184.734 45.1589 184.967 45.1589Z" fill="black"/>
<path d="M181.368 44.6257C181.602 44.6257 181.788 44.4388 181.788 44.2074C181.788 43.9759 181.602 43.7873 181.368 43.7873C181.137 43.7873 180.95 43.9759 180.95 44.2074C180.95 44.4388 181.137 44.6257 181.368 44.6257Z" fill="black"/>
<path d="M158.866 63.0495C158.607 62.3397 158.446 61.9677 158.237 61.4362C157.897 60.6287 157.446 59.5314 156.284 56.4351C155.752 55.3704 155.252 54.4514 154.801 53.6439C153.88 51.9825 153.333 50.983 153.638 50.659C153.719 50.5784 153.817 50.5304 153.945 50.5304C154.398 50.5304 154.64 50.7893 155.752 51.95C155.913 52.1283 156.382 52.6118 156.671 52.9015C156.704 52.9341 156.752 52.9015 156.736 52.8535C156.558 52.466 156.236 51.7888 156.092 51.4819C155.463 50.16 154.881 48.9668 155.3 48.0941C155.413 47.8695 155.624 47.7083 155.865 47.6586C155.881 46.9334 156.22 46.4979 156.784 46.4979C157.043 46.5133 157.285 46.5785 157.511 46.6917C157.703 46.5631 157.93 46.4979 158.156 46.4979C159.495 46.4979 160.882 48.7559 162.108 50.7413C162.689 51.6756 163.221 52.5638 163.673 53.0147C163.721 50.7567 164.157 49.4177 164.834 49.4177C164.915 49.4177 164.98 49.4331 165.045 49.4657C165.561 49.6594 165.835 51.031 166.14 52.6272C166.206 52.9667 166.286 53.3215 166.351 53.6764C166.48 54.3057 166.593 54.8543 166.689 55.3378C167.011 56.8054 167.222 57.7895 167.061 59.1131C167.577 60.4195 168.076 61.7739 168.529 62.9518L168.609 63.1781L158.866 63.0495Z" fill="#F9B298"/>
<path fill-rule="evenodd" clip-rule="evenodd" d="M163.673 52.6718C163.863 52.6718 164.016 52.8253 164.016 53.0147V54.5628C164.016 54.6524 163.981 54.7384 163.918 54.8025C163.918 54.8026 163.918 54.8026 163.918 54.8027C163.918 54.8027 163.918 54.8027 163.918 54.8028C163.918 54.8028 163.918 54.8028 163.918 54.8028L163.916 54.8048C163.914 54.807 163.911 54.8108 163.906 54.8161C163.896 54.8269 163.88 54.8438 163.86 54.8668C163.819 54.9128 163.76 54.9825 163.69 55.0742C163.548 55.2578 163.361 55.5275 163.182 55.8677C162.824 56.5496 162.508 57.4993 162.642 58.6037C162.665 58.7917 162.531 58.9626 162.343 58.9854C162.155 59.0082 161.984 58.8743 161.961 58.6863C161.805 57.4024 162.175 56.3111 162.575 55.5489C162.776 55.1671 162.986 54.8641 163.147 54.6554C163.219 54.561 163.282 54.4855 163.33 54.4305V53.0147C163.33 52.8253 163.484 52.6718 163.673 52.6718Z" fill="black"/>
<path fill-rule="evenodd" clip-rule="evenodd" d="M157.418 46.4493C157.57 46.3361 157.785 46.3674 157.898 46.5193C158.782 47.705 159.585 49.0336 160.165 50.0618C160.455 50.5768 160.691 51.0182 160.854 51.3312C160.936 51.4878 160.999 51.6123 161.042 51.6979C161.064 51.7407 161.081 51.7738 161.092 51.7963L161.105 51.822L161.109 51.8311C161.109 51.8311 161.109 51.8313 160.801 51.9825L161.109 51.8313C161.193 52.0012 161.123 52.2067 160.953 52.2903C160.783 52.3738 160.577 52.3037 160.494 52.1338M160.494 52.1338L160.49 52.1261L160.478 52.1021C160.467 52.0807 160.451 52.0487 160.43 52.0071C160.388 51.9239 160.326 51.8021 160.246 51.6483C160.086 51.3408 159.854 50.9061 159.567 50.3988C158.994 49.3826 158.207 48.082 157.348 46.9292C157.235 46.7774 157.266 46.5625 157.418 46.4493" fill="black"/>
<path fill-rule="evenodd" clip-rule="evenodd" d="M155.667 47.3909C155.815 47.2726 156.03 47.2965 156.149 47.4444C156.556 47.9531 157.365 49.2946 158.057 50.4789C158.407 51.0773 158.732 51.6452 158.97 52.0634C159.089 52.2726 159.186 52.4444 159.253 52.5639C159.287 52.6237 159.313 52.6704 159.331 52.7022L159.359 52.751C159.359 52.751 159.359 52.7511 159.06 52.9186C158.76 53.0862 158.76 53.0862 158.76 53.0862L158.733 53.0382C158.716 53.0067 158.69 52.9602 158.656 52.9008C158.589 52.7819 158.492 52.6108 158.374 52.4025C158.137 51.9858 157.813 51.4204 157.465 50.8249C156.761 49.6213 155.981 48.3328 155.613 47.8728C155.495 47.7249 155.519 47.5092 155.667 47.3909ZM159.227 53.2178C159.062 53.3103 158.853 53.2514 158.76 53.0862L159.06 52.9186L159.359 52.751C159.451 52.9162 159.392 53.1253 159.227 53.2178Z" fill="black"/>
<path fill-rule="evenodd" clip-rule="evenodd" d="M156.536 52.6117C156.696 52.5105 156.908 52.5581 157.009 52.7181L157.703 53.8154C157.805 53.9754 157.757 54.1873 157.597 54.2885C157.437 54.3898 157.225 54.3422 157.124 54.1821L156.43 53.0849C156.328 52.9248 156.376 52.713 156.536 52.6117Z" fill="black"/>
<path opacity="0.3" d="M184.338 53.853V52.6923L184.643 52.6118C185.466 52.37 186.015 52.1283 186.805 51.7734L186.853 51.8694L185.853 54.5474L184.338 53.853Z" fill="black"/>
<path d="M200.502 81.89C198.307 81.89 195.791 81.6002 192.951 80.9556L192.855 80.8098L193.08 77.6809H181.998L180.143 70.8401C179.805 71.3562 177.223 75.0029 172.901 76.5991C171.771 77.0517 170.56 77.2763 169.352 77.3089C163.399 77.3089 160.704 70.1303 158.672 62.5489L167.416 60.08L169.82 65.8561C170.029 65.5647 171.287 63.8553 173.497 61.0813C177.658 55.5161 183.772 54.9674 184.273 54.9349V53.6439H194.597L194.532 54.628C198.001 55.144 201.099 57.0471 203.147 59.8863C203.228 59.9994 211.809 71.4848 208.68 78.4387C207.729 80.6315 204.728 81.89 200.502 81.89Z" fill="#666D68"/>
<path fill-rule="evenodd" clip-rule="evenodd" d="M179.453 67.8606C179.638 67.8179 179.822 67.9329 179.865 68.1174L180.477 70.7628C180.519 70.9473 180.404 71.1315 180.22 71.1742C180.035 71.2169 179.851 71.1019 179.808 70.9174L179.196 68.272C179.154 68.0875 179.269 67.9033 179.453 67.8606Z" fill="#F5F0EC"/>
<path opacity="0.3" d="M178.255 73.0175C178.255 73.0021 178.692 71.7111 178.692 69.1634C178.692 67.6786 178.692 66.7099 179.208 66.7099H179.239L180.223 70.775V70.7921C179.674 71.5979 179.03 72.3574 178.337 73.0501L178.255 73.0175Z" fill="#F5F0EC"/>
<path fill-rule="evenodd" clip-rule="evenodd" d="M196.76 68.9565C196.936 68.8861 197.136 68.9714 197.206 69.1472L198.706 72.8899C198.777 73.0657 198.691 73.2653 198.516 73.3358C198.34 73.4063 198.14 73.3209 198.07 73.1451L196.57 69.4024C196.499 69.2266 196.584 69.027 196.76 68.9565Z" fill="#F5F0EC"/>
<path d="M180.53 85.5367C180.515 85.5367 180.515 85.5367 180.497 85.5367C180.353 85.5195 180.208 85.4235 180.16 85.2778C179.949 84.7617 180.434 83.5513 181.401 82.1643C181.224 82.2774 181.046 82.406 180.869 82.5363C179.772 83.3095 178.401 84.2782 177.336 84.2782C176.9 84.2937 176.498 84.0845 176.239 83.745C175.853 83.745 175.561 83.6164 175.385 83.3901C175.191 83.133 175.174 82.7455 175.32 82.31C175.126 81.9705 175.126 81.5351 175.304 81.019C175.659 79.9869 176.787 78.5827 178.385 77.1803C179.853 75.9064 181.434 74.8417 182.546 74.4217C185.451 73.3244 190.064 73.0347 193.419 73.0021H193.452L192.951 80.9556C192.951 80.9556 190.951 80.4875 189.757 80.1652C189.596 80.2458 187.676 81.2127 184.628 81.6962C182.901 84.0365 181.046 85.5367 180.53 85.5367Z" fill="#F9B298"/>
<path opacity="0.3" d="M195.775 73.0672L195.791 73.0175C196.324 71.7917 195.533 71.0184 195.549 69.8406C195.564 68.517 195.758 68.1947 196.468 68.0815L198.388 73.0175L195.775 73.0672Z" fill="#F5F0EC"/>
<path fill-rule="evenodd" clip-rule="evenodd" d="M180.651 77.597C180.759 77.7526 180.72 77.9662 180.564 78.0741C178.908 79.2225 176.621 81.2535 175.609 82.3921C175.483 82.5336 175.266 82.5464 175.124 82.4205C174.983 82.2947 174.97 82.0779 175.096 81.9364C176.148 80.7536 178.476 78.687 180.173 77.5105C180.329 77.4026 180.543 77.4413 180.651 77.597Z" fill="black"/>
<path fill-rule="evenodd" clip-rule="evenodd" d="M181.942 79.1309C182.05 79.287 182.01 79.5004 181.854 79.6077C179.803 81.017 177.255 83.1812 176.499 83.9392C176.365 84.0733 176.148 84.0735 176.014 83.9397C175.88 83.806 175.879 83.5889 176.013 83.4548C176.803 82.6629 179.385 80.4723 181.466 79.0425C181.622 78.9352 181.835 78.9748 181.942 79.1309Z" fill="black"/>
<path fill-rule="evenodd" clip-rule="evenodd" d="M183.218 80.6602C183.337 80.8078 183.313 81.0236 183.166 81.1422L181.681 82.3355C181.533 82.4542 181.317 82.4307 181.199 82.2831C181.08 82.1354 181.104 81.9196 181.251 81.801L182.736 80.6077C182.884 80.4891 183.099 80.5126 183.218 80.6602Z" fill="black"/>
<path fill-rule="evenodd" clip-rule="evenodd" d="M169.879 65.595C170.068 65.6107 170.208 65.7764 170.192 65.9652L170.031 67.9008C170.015 68.0895 169.85 68.2298 169.661 68.2141C169.472 68.1984 169.332 68.0326 169.348 67.8439L169.509 65.9083C169.524 65.7195 169.69 65.5793 169.879 65.595Z" fill="#F5F0EC"/>
<path fill-rule="evenodd" clip-rule="evenodd" d="M193.044 73.0021C193.044 72.8127 193.198 72.6592 193.387 72.6592C195.064 72.6592 198.01 72.6745 200.086 72.8056C200.275 72.8175 200.419 72.9804 200.407 73.1694C200.395 73.3584 200.232 73.502 200.043 73.49C197.991 73.3605 195.067 73.345 193.387 73.345C193.198 73.345 193.044 73.1915 193.044 73.0021Z" fill="#F5F0EC"/>
</svg>